<?xml version="1.0" encoding="utf-8"?>
<svg version="1.1" xmlns="http://www.w3.org/2000/svg" xmlns:xlink="http://www.w3.org/1999/xlink"
   viewBox="0 0 512 512" xml:space="preserve">
<path d="M259,485c-18-2-74,3-81-18-4-14,15-13,3-23-32-27-66-54-92-86-41-51-34-142,29-173,15-7,34-11,51-9,3,0,16,6,19,4,10-8-4-7-3-14,1-7,6-1,9-3,5-5-8-11-8-15,0-4,11-5,8-7-10-6-22-8-29-19-5-7-2-20-2-29,0-25,3-35,27-46,3-1,7,1,9-2,5-6-4-11,8-16,26-10,85-17,107,5,2,2,1,10,0,11,5,3,11,4,16,6,23,12,24,41,19,65-4,18-23,14-31,25-8,12,6,14,7,20,0,4-5,8-3,11,9,11,26,3,38,4,31,3,60,21,75,49,51,94-43,167-107,220-5,5,14,18,4,26-20,14-51,13-74,14z" fill="currentColor"/>
</svg>