<?xml version="1.0" encoding="utf-8"?>
<svg version="1.1" xmlns="http://www.w3.org/2000/svg" xmlns:xlink="http://www.w3.org/1999/xlink"
   viewBox="0 0 512 512" xml:space="preserve">
<path d="M253,491c-44-2-107,0-139-36-9-11-7-30-15-42-6-8-15-21-13-32,1-4,5-6,5-9,0-18-12-39-19-55-1-2,6-5,4-7-8-10-15-17-14-30,0-6,12-24,11-27-2-7-9-13-12-19-7-20-2-46,8-64,10-18,25-33,42-44,5-3,18-6,21-11,1-2,1-18,1-18,3-26,12-57,36-71,23-15,51-6,66,16,10,14,12,30,12,29,6-2,20-74,75-48,45,22,32,82,40,92,5,5,13,6,19,9,24,14,47,35,56,62,12,33-7,54-6,61,1,7,14,15,16,24,5,20-8,25-15,40-1,3,5,5,4,8-7,16-19,37-18,55,0,6,8,10,6,20-1,10-31,65-39,71-35,25-90,26-132,26z" fill="currentColor"/>
</svg>