<?xml version="1.0" encoding="utf-8"?>
<svg version="1.1" xmlns="http://www.w3.org/2000/svg" xmlns:xlink="http://www.w3.org/1999/xlink"
   viewBox="0 0 512 512" xml:space="preserve">
<path d="M105,491c-4,0-6-3-8-6-9-18,33-138,27-166-4-20-122-105-121-122,1-12,19-11,27-12,16-2,141-16,144-20,2-3,3-6,5-10,11-21,21-43,32-65,8-15,15-30,23-46,4-8,9-28,18-31,3,1,9,0,10,2,26,40,44,88,65,131,0,0,9,19,10,19,20,3,167,21,170,28,8,17-116,105-120,126-5,30,38,154,24,170-7,8-21-5-27-8-18-9-117-67-128-67-18,0-123,66-151,77z" fill="currentColor"/>
</svg>