<?xml version="1.0" encoding="utf-8"?>
<svg version="1.1" xmlns="http://www.w3.org/2000/svg" xmlns:xlink="http://www.w3.org/1999/xlink"
   viewBox="0 0 512 512" xml:space="preserve">
<path d="M260,496c-42,5-82-12-123-14-6,1-13,3-20,2-5,1-10-10-13-10-15-1-29,10-46,2-20-10-11-31-19-46-1-2-11-5-14-8-22-29-7-81,14-106,7-8,14-15,22-21,3-2,9-3,8-6-3-8-4-15,3-22,34-36,63-16,99-18,1,0,8-12,13-13,3,1,20,4,21,4,11-9,2-38,14-45,12-6,24,13,34,12,3,0,12-17,13-19,21-32,39-53,69-75,24-18,47-36,69-56,14-13,26-30,42-42,8-6,22,1,28,6,8,7,21,19,18,31-9,37-123,97-151,124-18,18-40,44-52,66-3,5,10,35,8,44-1,11-23,6-29,12-4,4,9,31,11,34,19,27,55,36,86,31,14-2,29-8,40-15,6-3,9-13,15-11,2,1-3,73,0,81,1,3,10,3,13,4,2,2-13,7-13,8-6,16,6,22-13,33-44,27-97,33-148,33z" fill="currentColor"/>
</svg>