<?xml version="1.0" encoding="utf-8"?>
<svg version="1.1" xmlns="http://www.w3.org/2000/svg" xmlns:xlink="http://www.w3.org/1999/xlink"
   viewBox="0 0 512 512" xml:space="preserve">
<path d="M300,489c-37-8-65,5-92-21-2-1-55-1-60-3-11-2-16-11-25-16-8-5-25,0-31-7-9-10-22-41-29-46-10-7-24-5-31-17-8-15,4-45-2-58-17-41,0-155,45-171,2,1-15-24-3-40,12-16,47-6,69-21,14-10,34-48,46-49,27-2,36,31,57,30,28-3,42-33,70-30,5,0,36,39,47,47,11,8,22-5,36,4,13,9,2,18,3,28,4,18,41,19,51,24,13,6-1,25,13,32,10,5,19-1,28,11,11,16-14,49-10,72,5,35-2,25-7,58-1,7,5,16,4,24-2,34-36,62-58,83-2,3,0,16-6,21-9,7-17,0-24,2-7,2-14,16-23,20-9,3-21,0-29,4-15,6-20,17-39,19zM248,355c42-4,20-22,41-43,6-6,38,6,52-5,14-11-9-83-17-85,1,0-15,9-18,9-22,0-53-20-76-11-10,4-12,14-26,12-7-1-19-14-27-5-2,4-27,43-27,44,3,15,21,12,24,28,2,8,1,37,13,40,20,5,45,12,61,16z" fill="currentColor"/>
</svg>