<?xml version="1.0" encoding="utf-8"?>
<svg version="1.1" xmlns="http://www.w3.org/2000/svg" xmlns:xlink="http://www.w3.org/1999/xlink"
   viewBox="0 0 512 512" xml:space="preserve">
<path d="M220,475c-39-17-117,8-143-27-6-9-4-22-9-30-18-25-54-34-63-68-9-32,29-73,57-80,13-4,49-14,37-18-14-4-36,21-42,17-6-4,1-15-10-20-34-16-26,5-9-28,2-6,14-54,31-49,13,3,26,18,26-2,0-2-47-47-32-72,2-3,78,1,87-23,1-3,9-35,15-50,1-4,68,32,75,42,4,6-3,89,9,77,6-7,2-84,11-87,20-7,20-9,34-25,1-1,20,7,25,6,6-2,25-17,29-14,5,5-4,27,1,36,2,3,19,10,17,13-2,2-16,13-14,17,21,33,79-21,64,41-2,10,13,15,10,22-2,6-42,8-38,23,3,13,39-2,44-4,13-4,20,19,32,26,3,1-4,15-2,20,4,10,13,15,20,23,1,1-45,7-36,26,8,18,45,31,54,60,8,21-12,43-26,56-18,18-40,56-63,64-22,7-89,17-115,18-14,0-32-19-41-9-11,13-17,17-35,19z" fill="currentColor"/>
</svg>