<?xml version="1.0" encoding="utf-8"?>
<svg version="1.1" xmlns="http://www.w3.org/2000/svg" xmlns:xlink="http://www.w3.org/1999/xlink"
   viewBox="0 0 512 512" xml:space="preserve">
<path d="M215,510c-33-4-107,7-128-25-7-11-20-55-14-67,9-17,44-9,28-23-81-71-88-203-15-281,26-28,55-42,88-57,17-8,8-56,33-50,20,5,22,34,32,41,4,3,56,9,70,14,53,22,95,67,114,122,9,27,13,60,8,89,1,3-10,40-10,41,4,3,25,1,32,4,34,13,56,58,38,91-14,26-54,39-78,22-30-21,14-28,19-39,6-14-17-16-24-11-33,25-42,70-61,104-13,24-109,25-132,25z" fill="currentColor"/>
</svg>