<?xml version="1.0" encoding="utf-8"?>
<svg version="1.1" xmlns="http://www.w3.org/2000/svg" xmlns:xlink="http://www.w3.org/1999/xlink"
   viewBox="0 0 512 512" xml:space="preserve">
<path d="M253,481c-32,3-38-86-64-79,1,0-4,24-5,26-10,27-38,49-67,50-52,3-95-46-82-96,6-23,22-43,44-53,9-4,36,1,29-13-7-16-81-36-73-57,12-32,66-53,97-62,9-2,27-1,34-5,11-7,13-25,24-32,26-19,65-15,87-42,19-24-20-22-14-31,12-16,36-17,52-25,6-3,10-9,17-11,41-14,104-29,147-15,10,3-1,100-5,114-27,104-74,133-151,200-5,4-4,36-6,43-10,33-32,74-64,88z" fill="currentColor"/>
</svg>