<?xml version="1.0" encoding="utf-8"?>
<svg version="1.1" xmlns="http://www.w3.org/2000/svg" xmlns:xlink="http://www.w3.org/1999/xlink"
   viewBox="0 0 512 512" xml:space="preserve">
<path d="M258,428c-18,0-35,0-52,0-44-1-51,5-60-34-2-10-12-23-12-33,0-10,19,3,18,2-7-14-15-27-21-40-3-5-10-26-15-28-2,1,1,4-1,7-5,31,35,49,1,74-8,6-20,7-29,4-52-17,2-61,2-61-1-11,3-42-12-34-15,8-52,51-42,70,5,10,28,16,16,35-10,14-31,18-42,4-13-17,3-24,8-37,8-20-3-50,6-72,18-48,45-37,70-60,11-11,11-28,30-34,18-6,50,11,61,7,10-5,35-161,121-130,43,15,25,43,39,75,11,23,43-1,13,57-4,8,19-4,28-5,27-1,54,7,75,25,58,48,19,80,30,106,5,12,49,54-10,61-26,3-43-29-29-50,3-5,14-8,16-12,14-27-33-77-65-66-4,1-17,7-19,12-1,3,11,24,12,29,1,13-3,27,1,39,1,8,14,11,14,24,0,25-33,32-45,11-10-16,7-21,9-33,4-15-11-37-19-12-4,12-8,24-13,36-2,3-6,9-4,8,34-16,14,27,5,46-7,16-70,8-84,8z" fill="currentColor"/>
</svg>