<?xml version="1.0" encoding="utf-8"?>
<svg version="1.1" xmlns="http://www.w3.org/2000/svg" xmlns:xlink="http://www.w3.org/1999/xlink"
   viewBox="0 0 512 512" xml:space="preserve">
<path d="M214,502c-72,0-147-35-172-107-18-50-10-108,7-157,19-52,53-104,102-132,11-6,24-13,37-16,6-2,26-1,30-5,4-3,4-15,7-19,6-8,25-24,36-26,6-2,12,0,17,2,3,2,5,9,8,7,9-9,10-26,29-19,6,2,11,7,14,13,0,0,2,8,2,8,50-12,26,11,37,24,1,1,17,0,22,4,6,6,8,14,7,22,0,0-3,8-3,8,15,2,17,14,22,15,5,1,10,1,15,0,28,4,54,28,60,56,8,37-16,83-56,90-10,2-25-4-33-1-2,0,1,2,1,4,1,6,1,12,1,18,0,17,0,34-4,51-19,91-90,161-186,160z" fill="currentColor"/>
</svg>