<?xml version="1.0" encoding="utf-8"?>
<svg version="1.1" xmlns="http://www.w3.org/2000/svg" xmlns:xlink="http://www.w3.org/1999/xlink"
   viewBox="0 0 512 512" xml:space="preserve">
<path d="M236,510c-18,2-34-4-48-14-44-33,4-84,16-121,0,1-17-19-10-38,2-5,21-33,18-38-2-3-36-3-42-4-48-8-145-44-101-109,9-13,25-24,38-32,11-6,22-11,32-17,19-12,36-26,48-45,22-35,22-74,70-85,17-3,36,0,50,11,30,23,39,57,60,85,19,25,48,40,65,64,25,35-7,76-36,94-20,12-41,20-63,26-3,1-26,5-25,7,2,19,14,35,18,53,5,23-13,20-16,31-3,10,1,24,1,33-1,45-26,95-76,99z" fill="currentColor"/>
</svg>