<?xml version="1.0" encoding="utf-8"?>
<svg version="1.1" xmlns="http://www.w3.org/2000/svg" xmlns:xlink="http://www.w3.org/1999/xlink"
   viewBox="0 0 512 512" xml:space="preserve">
<path d="M310,504c-9-1-47-30-49-34-2-6,3-13,0-17-8-16-49-88-60-96-3-3-8,1-12,0-5-2-4-16-10-15-16,4-32,11-46-2-10-10,2-24-2-36-3-13-15-19-22-29-7-10,19-17,19-17-33-21-57-29-68-75-20-83,63-160,144-130,24,9,4-21,21-37,2-2,6-7,10-5,6,3-3,10,0,14,8,9,21,14,21,29,0,7-3,13-8,18-1,2-6,2-5,4,9,22,28,29,33,62,3,19-6,37-5,54,1,4,7,4,8,8,1,8,1,15,2,22,6,17,30,20,31,29,4,24-19,27-29,44-2,4,5,8,5,12,0,6-9,10-9,13,0,8,7,21,9,28,8,24,13,59,27,81,2,4,10,4,13,10,5,9,0,10-3,17-5,14,14,48-15,48z" fill="currentColor"/>
</svg>