<?xml version="1.0" encoding="utf-8"?>
<svg version="1.1" xmlns="http://www.w3.org/2000/svg" xmlns:xlink="http://www.w3.org/1999/xlink"
   viewBox="0 0 512 512" xml:space="preserve">
<path d="M470,413c-29-8-57-17-84-30-24-11-51-23-72-40-8-7-12-19-19-25-2-2-4,4-7,4-7,1-14,1-21,1-13,0-38-6-50,0-5,2-12,17-17,21-15,13-140,79-159,70-5-3-11-68-11-79-3-60-23,1-28-48-1-9-7-52,4-58,3-2,23,1,24-4,4-15,10-103,29-106,11-2,2,4,13-3,7-5,31,14,38,18,31,19,65,39,91,65,7,8,10,18,16,26,1,2,4-3,6-3,20,2,38,3,58-2,5-1,10-4,13-1,1,0,2,9,4,7,29-47,87-91,140-110,6-3,5,6,10,7,2,0,4-4,7-4,13,2,21,46,23,57,3,16,4,33,6,49,1,5,23-3,24,4,4,22,6,53,3,74-2,9-22,1-25,6-4,7-1,27-2,36-1,15,1,62-14,69z" fill="currentColor"/>
</svg>