<?xml version="1.0" encoding="utf-8"?>
<svg version="1.1" xmlns="http://www.w3.org/2000/svg" xmlns:xlink="http://www.w3.org/1999/xlink"
   viewBox="0 0 512 512" xml:space="preserve">
<path d="M258,506c-61-17-113-56-159-98-29-26-57-58-72-94-40-100,17-217,129-225,7,1,21-26,21-35,1-6-20-24,4-33,11-4,25,3,26,15,2,14-10,21,17,17,1,1,14-3,13-5-2-20-5-44,28-36,33,8-6,37,24,41,2,1,21,2,22-2,0-3-4-6-5-9-3-16,15-26,28-20,21,11,1,24,1,32,1,6,13,32,18,36,4,3,25,1,32,2,33,6,64,24,85,51,113,147-76,327-212,363z" fill="currentColor"/>
</svg>