<?xml version="1.0" encoding="utf-8"?>
<svg version="1.1" xmlns="http://www.w3.org/2000/svg" xmlns:xlink="http://www.w3.org/1999/xlink"
   viewBox="0 0 512 512" xml:space="preserve">
<path d="M364,481c-24-4-43-24-60-40-41-38-61-73-78-125-8-23-22-52-44-66-9-5-17-5-26-15-8-7-3-12-2-19,0-2-9-7-10-8-8-9-10-16-21-20-24-6-33,18-46,13-23-10,13-25,14-26,1-4-8-10-6-16,2-5,16-7,12-10-8-6-18-2-23-6-34-28-14-51,16-73,13-10,45,2,43,21,1,3-4,6-3,9,1,4,5,9,10,9,4,0,1-9,4-12,2-2,9,3,10,0,2-6,3-36,18-31,12,4,1,58,5,70,3,10,16,26,23,33,1,1,14-3,18,1,9,8,12,21,16,27,8,12,25,26,38,34,19,11,42,15,63,22,49,19,101,64,126,112,26,47-59,109-97,116z" fill="currentColor"/>
</svg>