<?xml version="1.0" encoding="utf-8"?>
<svg version="1.1" xmlns="http://www.w3.org/2000/svg" xmlns:xlink="http://www.w3.org/1999/xlink"
   viewBox="0 0 512 512" xml:space="preserve">
<path d="M402,465c-30,6-54-23-79-28-5-1-37,10-48,11-24,1-49,1-72-5-6-1-12-6-18-6-4,0-16,10-20,11-32,15-70,24-99-3-12-11-23-26-25-43-3-24,14-32,15-44,1-8-17-15-5-38,16-31,59-55,88-69,4-2,33-9,34-11,1-3-4-4-5-7-13-17-18-40-15-61,2-17,24-54,24-59,0-5-12-16-13-22-6-27,12-58,40-62,18-2,37,3,49,17,2,3,3,9,7,11,9,5,31,1,42,2,4,2,8,6,13,5,4-1,6-7,10-10,17-13,43-13,61,0,22,16,26,48,10,71-1,1-14,11-14,12,4,31,16,54,3,86-5,11-11,21-20,28-1,2-16,14-16,14,24,17,45,34,64,57,6,7,10,19,16,25,9,9,21,11,30,22,31,40-14,93-57,96z" fill="currentColor"/>
</svg>