<?xml version="1.0" encoding="utf-8"?>
<svg version="1.1" xmlns="http://www.w3.org/2000/svg" xmlns:xlink="http://www.w3.org/1999/xlink"
   viewBox="0 0 512 512" xml:space="preserve">
<path d="M255,484c-47-18-94-39-142-58-4-2-26-8-27-13-11-51-4-109-19-158,0-2-6-2-7-5-4-16-6-35-7-52,1-9,52-14,48-18-5-6-28-25-22-35,8-13,19-24,27-37,12-20,20-44,33-63,4-5,12-9,18-12,39-14,79,18,87,57,3,13,1,28,5,42,1,3,1-8,1-11,2-12,4-24,8-35,13-39,56-74,100-55,9,4,18,24,25,32,12,13,30,25,41,39,7,10,10,22,8,34-3,12-15,22-24,28-5,4-20,9-15,11,21,8,45,11,65,20,5,2-4,44-5,49-1,13-6,11-8,23-7,47-8,98-20,144-2,6-24,12-29,14-47,20-93,43-141,59z" fill="currentColor"/>
</svg>