<?xml version="1.0" encoding="utf-8"?>
<svg version="1.1" xmlns="http://www.w3.org/2000/svg" xmlns:xlink="http://www.w3.org/1999/xlink"
   viewBox="0 0 512 512" xml:space="preserve">
<path d="M209,488c-54,3-106-37-129-85-34-72,4-165,44-226,14-22-7-53-8-78,0-13,39-38,49-47,5-4,13-15,20-16,24-5,84-16,107-10,22,6,66,30,86,43,13,8,9,67,17,79,23,36,52,61,53,108,4,112-132,228-239,232zM165,391c73-7,143-63,175-129,3-5,19-47,16-49-11-8-35,18-44,22-17,8-32,2-48,8-36,13-73,62-91,95-3,6-23,51-18,53,3,2,6,1,10,1z" fill="currentColor"/>
</svg>