<?xml version="1.0" encoding="utf-8"?>
<svg version="1.1" xmlns="http://www.w3.org/2000/svg" xmlns:xlink="http://www.w3.org/1999/xlink"
   viewBox="0 0 512 512" xml:space="preserve">
<path d="M279,510c-31-5-179-31-197-54-19-25-9-141-16-176,1-4-7,3-10,2-8-2-21-58-17-65,6-10,32-11,36-21,0,1-9-14-9-17-5-22,6-52,22-68,39-40,77,31,93,24,13-5,21-18,38-18,3,0,31,7,32,5,16-26,32-73,71-66,32,7,33,54,42,60,5,3,19,1,25,3,14,4,17,15,27,24,21,18,63,24,56,62-6,29-47,29-61,51-2,2,14,1,29,6,6,2,3,34,3,39,1,39,3,95-11,131-10,28-125,71-153,78z" fill="currentColor"/>
</svg>