<?xml version="1.0" encoding="utf-8"?>
<svg version="1.1" xmlns="http://www.w3.org/2000/svg" xmlns:xlink="http://www.w3.org/1999/xlink"
   viewBox="0 0 512 512" xml:space="preserve">
<path d="M262,496c-65,2-126-36-154-95-27-58-19-132,25-180,15-17,56-38,61-44,3-4,0-21,0-26,1-6,3-12,7-16,2-2,6-1,6-4-4-20-24-45-33-63-3-6-31-50-20-51,8,1,85,0,86,2,11,22,19,43,20,43,3-6,14-44,20-45,11-1,86,1,88,3,2,3-53,98-57,112-2,5,9,6,11,12,1,7-4,26,0,32,4,6,13,6,19,9,25,15,47,37,62,63,61,107-18,245-141,248z" fill="currentColor"/>
</svg>