<?xml version="1.0" encoding="utf-8"?>
<svg version="1.1" xmlns="http://www.w3.org/2000/svg" xmlns:xlink="http://www.w3.org/1999/xlink"
   viewBox="0 0 512 512" xml:space="preserve">
<path d="M123,486c-133,3,73-212,68-231,0,1-36-5-38-6-22-7-38-22-52-40-5-7-50-60-49-61,6-10,30,4,35-3,5-5-34-35-2-28,6,2,13,4,19,7,2,2,4,2,7,4,43,27,42,85,99,95,6,1-40-26-17-58,28-39,52,11,67-14,4-7-15-2-23-3-22-1-54-6-68-25-4-6-7-15-5-21,3-13,17-21,24-30,12-16,5-42,23-52,39-23,71,55,81,81,2,5,10-13,22-29,19-29,42-55,79-58,59-4,114,68,90,125-4,9-15,15-24,16-47,5-42-113-91-48-8,10-16,24-21,36-1,3,28-3,50,0,24,3,101,25,74,64-10,12-27,15-35,28-16,24-19,63-57,39-15-11-27-28-37-43-5-8-14-32-13-24,10,63-30,41-44,53-2,2,29,22,31,23,44,23,106,18,125,74,2,5,8,18,5,23-5,9-26-11-31-5-12,13-8,33-24,45-7,6-16-32-19-37-15-24-50-20-71-36-16-11-28-28-35-45,0,0-5-17-6-16-22,35-104,199-137,200z" fill="currentColor"/>
</svg>