<?xml version="1.0" encoding="utf-8"?>
<svg version="1.1" xmlns="http://www.w3.org/2000/svg" xmlns:xlink="http://www.w3.org/1999/xlink"
   viewBox="0 0 512 512" xml:space="preserve">
<path d="M286,495c-83-17-196-38-248-112-16-23-21-51-26-77-4-20-7-39-5-59,5-51,54-85,102-79,15,1,29,6,42,13,14,7,23,15,23,14,6-33,16-60,45-79,3-2,19-8,21-10,4-5,3-12,5-17,11-26,29-47,59-48,24-1,50,11,63,31,1,2,15,34,16,34,31-8,67-21,84,19,5,12,6,26,12,38,5,11-3,30,3,39,3,4,17,2,24,16,16,32,2,104-17,134-8,13-23,15-34,4-2-2-15-23-16-21-26,33-47,74-81,99-7,5-28-3-34,3-15,16-19,46-38,58z" fill="currentColor"/>
</svg>