<?xml version="1.0" encoding="utf-8"?>
<svg version="1.1" xmlns="http://www.w3.org/2000/svg" xmlns:xlink="http://www.w3.org/1999/xlink"
   viewBox="0 0 512 512" xml:space="preserve">
<path d="M154,487c-31,1-52-37-60-63-3-10-3-25-7-34-7-14-13-16-16-33-6-33-17-117,4-144,4-5,14-6,17-10,12-16,17-34,31-48,15-16,32-28,51-38,4-1,9-1,10-5,5-24,6-66,24-84,19-19,72,16,85,29,4,3,6,11,11,10,5-2,16-28,21-34,17-19,61,11,76,23,48,41,46,96,42,152-5,53,7,115-15,164-32,75-200,111-274,115z" fill="currentColor"/>
</svg>