<?xml version="1.0" encoding="utf-8"?>
<svg version="1.1" xmlns="http://www.w3.org/2000/svg" xmlns:xlink="http://www.w3.org/1999/xlink"
   viewBox="0 0 512 512" xml:space="preserve">
<path d="M52,468c-10-4,1-11,4-17,2-6-2-15,0-21,1-4,5-6,7-10,2-3-2-8-1-13,2-12,40-71,52-78,8-4,13-14,23-17,3,1,7,1,8-2,6-11-15,10,7-14,4-4,18-10,13-11-24-4-17,20-32,26-15,7-44,1-61,2-4,0-29,7-32,2-4-7,45-72,52-82,7-8,19-29,29-33,6-3,23,2,31,1,22-2,55-10,72-25,7-6,8-26,14-28,17-6,28-22,43-34,48-37,99-71,163-59,41,8,26,64,17,92-5,14,3,9,1,18-2,5-7,1-9,3-15,18-24,43-39,63-13,17-35,33-41,51,0,1-34,15-41,24-20,29-12,73-16,82-11,20-80,66-101,75-9,4-8-75-5-81,3-7,40-17,25-30-2-2,0,5-2,7-2,3-6,5-9,8-12,11-21,24-37,31-18,9-30,29-47,38-2,1-9-2-12-1-10,5-22,17-33,20-20,4-25,1-42,13z" fill="currentColor"/>
</svg>