<?xml version="1.0" encoding="utf-8"?>
<svg version="1.1" xmlns="http://www.w3.org/2000/svg" xmlns:xlink="http://www.w3.org/1999/xlink"
   viewBox="0 0 512 512" xml:space="preserve">
<path d="M273,511c-13,6-16-7-25-10-8-3-23,8-33,7-13-2-29-7-43-9-6-2-8-13-14-11-13,5-25,9-39,1-12-8-5-16-9-24-5-9-19-10-20-23-1-12,17-20,17-25,0-12-22-17-27-23-4-5-19-51-17-54,4-6,22-3,28-6,2,0-9-45-3-60,2-6,13,17,15,12,13-28,30-27,42-49,4-8-18-7-23-14-10-15-44-88-39-101,14-36,53-62,77-85,4-3-4-17,11-21,20-6,151-10,167,0,11,7,6,16,12,25,17,27,20-32,27-21,8,12,13,34,8,56-2,6,18-5,19,0,2,8-5,19,0,26,9,12,21,18,17,37-5,23-27,21-31,41-2,8,22,23,8,38-10,11-28,11-35,24-4,6,38,3,43,21,4,12-6,20-7,30-2,13,17,0,18,3,4,13-7,36-1,46,6,12,51,58-12,65-4,0,12,28,12,29,8,17-4,36-16,48-7,7-109,26-127,27z" fill="currentColor"/>
</svg>