<?xml version="1.0" encoding="utf-8"?>
<svg version="1.1" xmlns="http://www.w3.org/2000/svg" xmlns:xlink="http://www.w3.org/1999/xlink"
   viewBox="0 0 512 512" xml:space="preserve">
<path d="M250,498c-29-3-69,3-93-16-11-8-4-37-7-34-5,5-22,35-26,33-20-9,5-75,0-73-9,4-42,24-51,15-7-6,18-41,18-41-6-2-8-9-11-11-61-35-18-25-24-40-4-11-52-22-45-41,2-6,16-2,20-6,11-8,14-39,20-51,2-5,14-10,15-12,1-2-6,1-8-1-9-4-16-8-22-15-21-22-28-76-5-105,32-41,68-17,104-21,7,1,24,16,30,9,20-27,14-13,33-27,9-6,9-20,22-23,35-10,104-2,116,37,4,10,1,21,2,30,0,2,16-13,17-14,13-12,31-24,48-29,10-3-1,33-2,36-8,38,24-7,9,39-1,3,7-2,10-3,9-2,19-2,28,1,2,1,48,46,49,49,1,4-2,25,1,26,16,16,6,48-11,66-4,3-29,17-29,18,0,4,32,49,36,68,8,33-57-35-72-27-8,4-20,19-29,25,0,0,15,52,16,76,1,45-23,15-47,0-6-4,3,38-8,46-27,19-71,17-102,17z" fill="currentColor"/>
</svg>