<?xml version="1.0" encoding="utf-8"?>
<svg version="1.1" xmlns="http://www.w3.org/2000/svg" xmlns:xlink="http://www.w3.org/1999/xlink"
   viewBox="0 0 512 512" xml:space="preserve">
<path d="M253,432c-38-2-80-2-116-18-9-4-16-11-25-15-14-6-29-9-43-15-34-16-57-48-26-80,10-11,33-14,41-24,5-6,1-31,3-39,10-32,59-149,89-162,31-14,52,10,59,38,6,20,8,47,10,45,28-23,28-80,76-82,57-3,52,76,65,111,6,15,34,19,45,33,15,19,11,57,16,63,10,15,33,17,38,38,13,49-52,60-83,74-9,4-16,11-25,15-37,16-84,19-124,18z" fill="currentColor"/>
</svg>