<?xml version="1.0" encoding="utf-8"?>
<svg version="1.1" xmlns="http://www.w3.org/2000/svg" xmlns:xlink="http://www.w3.org/1999/xlink"
   viewBox="0 0 512 512" xml:space="preserve">
<path d="M112,498c-25-2-71-2-89-23-22-26,26-88,23-94-15-26-45-51-6-82,14-11,37-16,54-14,2,0,17,6,18,5,0,0-43-51-20-65,8-6,15,10,20,13,7,6-6-23,3-25,9-2,2,32,8,36,6,4,19,6,24-2,5-7,0-22,6-31,16-26,67-41,75-73,9-39-28-5-33-4-6,2-39-1-38-6,2-6,9-2,11-5,1-2-6-8-2-11,7-5,16,22,32,10,16-12-18-12-21-27-3-11,19-52,32-56,32-9,83-25,107,8,8,11,5,32,12,42,9,10,20,1,24,21,3,15-11,26-25,24-7-1-19-19-21-11-2,12-5,23-13,33-5,7-14,10-16,18-1,6,12,1,18,2,14,2,36,8,40,7,10-4,12,31,19,39,19,21,33,21,41,53,1,1,13-3,14-3,17-1,44,1,59,8,11,5,22,52,15,61-4,5-17,5-14,11,17,41,49,68,15,115-21,29-69,15-96,15-7,0-18,6-26,8-39,8-84,0-118-21-2-1-17,10-21,11-11,3-96,12-111,13z" fill="currentColor"/>
</svg>