<?xml version="1.0" encoding="utf-8"?>
<svg version="1.1" xmlns="http://www.w3.org/2000/svg" xmlns:xlink="http://www.w3.org/1999/xlink"
   viewBox="0 0 512 512" xml:space="preserve">
<path d="M283,510c-219,13-364-267-206-429,9-9,187-135,170-65-3,15-66,44-79,58-68,74-72,186-18,269,7,10,5-69-7-77-1,1-4-72,1-80,4-10,15-14,20-23,13-25,9-21,24,5,5,8,15,12,19,22,21,51-34,108-9,158,2,3,8,1,10,4,3,6-11,20-4,21,33,6,7-75,9-90,5-42,51-42,64-72,7-17-34-95,12-90,26,3,6,17,9,33,3,11,27-3,31,8,5,16-34,23-17,53,14,25,52,29,61,62,2,6-20,117,12,96,7-4-7-16-5-24,1-5,9-1,10-3,21-51-21-103-11-155,3-13,16-17,22-27,2-6-3-24,10-20,19,6,7,10,14,23,5,11,19,16,21,29,7,34-10,69-10,97,0,23,11,64,9,77,1,4-13,18-9,25,1,3,51-62,68-26,3,7-11,23-15,28-45,68-122,111-204,112z" fill="currentColor"/>
</svg>