<?xml version="1.0" encoding="utf-8"?>
<svg version="1.1" xmlns="http://www.w3.org/2000/svg" xmlns:xlink="http://www.w3.org/1999/xlink"
   viewBox="0 0 512 512" xml:space="preserve">
<path d="M89,499c-38,1-5-53-10-69-2-7-14-18-19-24-17-27-28-60-28-93,0-26,7-53,19-76,2-4,7-7,6-11-7-18-41-28-16-61,5-7,14-10,19-16,5-6,6-16,13-22,3-3,11-4,9-7-12-19-51,5-59-27-5-19,3-44,24-46,5,0,13,4,18,3,0,0,4-45,46-32,38,12,5,46,12,57,10,17,23-1,40,1,18,3,31,18,39,20,6,1,22-9,30-9,10,0,18,5,28,7,1,0,17-19,20-20,15-9,37-13,54-9,16,3,30,12,40,24,3,3,4,9,8,12,5,2,12,0,17,2,9,3,21,19,26,20,8,2,15,1,22,6,5,4,39,46,39,50,7,31-20,35-22,46-1,7,7,13,10,19,19,42,20,91,2,133-7,17-29,39-34,53-5,15,28,62-4,69-22,5-31-24-48-27-7-1-28,11-36,13-23,7-46,11-70,13-54,6-102-11-152-26-4-1-29,26-44,27z" fill="currentColor"/>
</svg>