<?xml version="1.0" encoding="utf-8"?>
<svg version="1.1" xmlns="http://www.w3.org/2000/svg" xmlns:xlink="http://www.w3.org/1999/xlink"
   viewBox="0 0 512 512" xml:space="preserve">
<path d="M276,502c-7-2-15-8-22-13-24-15-46-33-74-38-10-2-15,22-28,12-15-11-31-25-45-38-14-13-51-101-59-122-5-13-35-54-28-67,6-11,20-19,26-31,7-14,8-31,15-45,28-58,79-101,140-118,26-7,55-9,82-5,9,1,35,12,43,9,9-3,25-19,36-17,15,3,29,48,37,61,19,27,43,46,56,78,25,61,17,122-8,182-2,4,9,5,9,9,0,13-41,102-50,117-2,5-116,24-130,26z" fill="currentColor"/>
</svg>