<?xml version="1.0" encoding="utf-8"?>
<svg version="1.1" xmlns="http://www.w3.org/2000/svg" xmlns:xlink="http://www.w3.org/1999/xlink"
   viewBox="0 0 512 512" xml:space="preserve">
<path d="M267,482c-19-2-94,8-100-19-3-17,4-14,9-26,4-9-3-22,0-32,1-3,7-4,8-7,2-4,1-8,0-12,4-17,50-2,53-15,4-16-10-35-8-51,0-6,4-11,4-17,1-25-17-50-13-77,0-1,5-11,4-12-2-2-8-1-11-7-10-19-13-47-18-68-8-30,47-26,43-44-2-7-10-14-13-21-2-8,1-13,3-20,4-22,11-36,39-33,46,4,12,78,13,80,8,15,38,6,42,29,0,0-12,74-13,76-5,6-10,4-15,7-3,2,2,6,3,9,1,6,2,14,1,21-2,19-15,41-14,60,1,11,5,20,4,32-1,11-10,25-7,37,2,6,40,6,49,11,6,4,1,9,3,15,0,1,9,4,9,7,3,10-2,22,1,32,2,8,12,3,10,24-2,25-71,21-86,21z" fill="currentColor"/>
</svg>