<?xml version="1.0" encoding="utf-8"?>
<svg version="1.1" xmlns="http://www.w3.org/2000/svg" xmlns:xlink="http://www.w3.org/1999/xlink"
   viewBox="0 0 512 512" xml:space="preserve">
<path d="M275,484c-122,4-137-37-148-145-2-22-11-39-11-61,0-68,38-29,10-95-6-11-10-24-16-35-15-27-15,36-22,41-30,20-49-23-46-47,4-38,61-71,94-45,25,19,35,55,46,82,8,18,10-8,17-14,4-4,14-3,17-6,4-4,5-25,9-31,9-11,34-21,39-30,8-17,7-82,30-84,68-7-5,99,7,109,5,3,11,6,15,10,3,2,4,6,8,8,7,4,50-95,73-86,57,22-35,90-46,120-2,7,15,22,16,15,1-5-8-19-6-21,4-4,9-3,11-9,1-3,0-9,2-12,3-3,8,1,11,0,8-2,8-10,14-14,0,0,25,20,21,33-4,9-5,19,1,27,6,8-11,16,5,10,2,1,8-4,11-3,3,2,6,16,11,20,5,3,19,5,21,9,2,4-4,7-5,10-1,4,2,9,5,12,8,12-16,10-25,20,0,0-26-12-27-5-3,14,0,17-10,28-6,7,16,5,23,8,18,9,30,26,32,46,7,61-43,45-62,60-4,2-11,33-18,42-22,28-74,32-107,33z" fill="currentColor"/>
</svg>