<?xml version="1.0" encoding="utf-8"?>
<svg version="1.1" xmlns="http://www.w3.org/2000/svg" xmlns:xlink="http://www.w3.org/1999/xlink"
   viewBox="0 0 512 512" xml:space="preserve">
<path d="M262,504c-68,0-160-9-202-72-18-27-21-62-5-91,4-6,24-22,22-28-10-23-49-52-29-79,18-23,62-19,65-54,1-18-18-31-15-43,1-4-7,2-10,0-6-4-11-9-16-14-4-6,1-14-2-18-3-5-13-5-17-12-7-11,4-27,17-24,12,3,18,30,27,23,7-5,20-40,35-15,10,17-13,18-15,27,1,3,17,13,10,25-3,6-28,9-21,13,13,7,29-21,50,1,7,7,16,14,21,24,2,4,1,13,4,13,5,0,8-6,12-8,1,0,15-5,15-6-3-16-8-40,13-47,22-8,39,36,59,10,9-12-28-54-16-57,6-1,49-11,53-7,1,0-1,11,1,14,13,19,52,25,52,51,0,15-45,30-26,45,40,30-1-52,51-35,25,9,12,40,12,41,0,0,83-14,31,45,0,0,17-6,31-6,8,0-6,18-6,18-90,68,15,34,15,84,0,9-11,15-16,22-4,5,11,11,11,17,0,4-6,6-6,8-4,18,1,33-8,50-35,71-126,85-197,85z" fill="currentColor"/>
</svg>