<?xml version="1.0" encoding="utf-8"?>
<svg version="1.1" xmlns="http://www.w3.org/2000/svg" xmlns:xlink="http://www.w3.org/1999/xlink"
   viewBox="0 0 512 512" xml:space="preserve">
<path d="M417,472c-17-24-27-64-56-82-42-26-79,36-119,41-7,1,14-22,7-19-29,10-54,27-87,23-17-2,62-52,1-22-8,4-84,35-74,21,10-16,26-32,40-44,44-40-97-19-89-62,2-13,18-18,20-28,4-11-3-29,2-44,4-11-38,6-10-21,18-18,34-17,55-25,3-1,9,4,8,3-9-13-70-49-60-58,8-7,38,0,32-9-23-36-7-31,22-46,11-6,4-30,27-24,16,3,10,26,23,34,3,2-7-13-6-14,4-7,16-8,23-5,7,2,41,37,47,45,21,25-12,68-2,79,4,4,29-81,19-96-4-7-27-12-20-24,5-9,14-7,23-8,9,1-4-19,1-25,21-21,102-20,120-2,14,14-11,33-11,49,0,14,17,27,21,41,1,4-2,14,1,12,15-11,18-39,34-50,8-6,15,57,12,66-7,24,26-15,23,1-4,16-12,33-18,48-12,32-60,85-49,122,15,50,101,67,94,79-9,13-57-22-47-10,14,16,45,24,22,45-12,10-40-47-33-33,10,19,24,28,6,42z" fill="currentColor"/>
</svg>