<?xml version="1.0" encoding="utf-8"?>
<svg version="1.1" xmlns="http://www.w3.org/2000/svg" xmlns:xlink="http://www.w3.org/1999/xlink"
   viewBox="0 0 512 512" xml:space="preserve">
<path d="M256,511c-16-3-44,5-57-7-3-3-6-10-5-14,0,1,5-15,5-15-41-12-194-8-193-77,0-43,64-44,71-56,6-9-13-83-3-113,12-35,62-29,68-38,10-18-12-54-4-78,9-28,54-25,57-31,11-20-44-46-5-72,20-14,42,15,44,13,44-39,37,2,51,4,2,0,14-20,23-22,20-4,38,14,34,35-2,10-22,23-22,24-2,6-3,12,0,17,8,13,53-4,58,45,2,16-17,51-7,65,7,9,55,5,66,35,10,26-9,105-1,117,9,12,91,19,69,69-24,54-141,54-188,63,0,0,5,15,5,16,0,7-4,13-10,16-15,7-41,4-57,4z" fill="currentColor"/>
</svg>