<?xml version="1.0" encoding="utf-8"?>
<svg version="1.1" xmlns="http://www.w3.org/2000/svg" xmlns:xlink="http://www.w3.org/1999/xlink"
   viewBox="0 0 512 512" xml:space="preserve">
<path d="M260,471c-21,4-18-8-27-17-7-8,6-2,6-3,2-8,3-31,0-38-1-3-6-2-8-4-2-1,6,1,7-3,1,1-1-11-3-12-5-2-14,1-20-1-25-3-49-14-66-31-16-15-31-36-50-46-6-3-36-5-33-12,8-17,49,12,58,8,6-3-3-14-4-20-2-18,0-35,3-52,6-31,21-70,15-102-4-20-72-49-41-72,9-8,22-8,32-7,15,2,28,14,42,16,6,1-6-12-5-18,2-14,15-13,26-13,18,0,25,18,39,22,14,4,53-32,91-25,12,2,14,11,18,20,1,2,35-11,49-3,15,9-9,32-8,32,8,1,41-6,41,10,0,6-61,24-56,71,7,60,35,92,5,153,0,1,17,1,17,1,7,0,65,10,63,19-1,5-45-4-56-3-33,4-49,30-77,45-11,6-35,5-41,9-3,2-5,27-3,29,2,3,7,3,10,5,2,1-10,0-10,12,0,16,5,30-14,31z" fill="currentColor"/>
</svg>