<?xml version="1.0" encoding="utf-8"?>
<svg version="1.1" xmlns="http://www.w3.org/2000/svg" xmlns:xlink="http://www.w3.org/1999/xlink"
   viewBox="0 0 512 512" xml:space="preserve">
<path d="M169,497c-82,9-60-85-72-98-18-21-38-31-46-59-13-42,12-76,51-93,8-3,41-6,46-13,14-19,21-40,37-57,15-17,45-24,50-29,2-3,6-24,19-24,11,0,1,18,7,24,4,3,9,2,14,3,16,7,30,20,40,34,9,11,16,36,27,44,7,6,24,6,33,9,31,10,67,29,69,67,2,25-12,49-29,67-4,4-14,11-17,17-4,11,1,34-1,46-9,52-52,66-98,49-12-4-32-20-44-20-9,0-59,31-86,33z" fill="currentColor"/>
</svg>