<?xml version="1.0" encoding="utf-8"?>
<svg version="1.1" xmlns="http://www.w3.org/2000/svg" xmlns:xlink="http://www.w3.org/1999/xlink"
   viewBox="0 0 512 512" xml:space="preserve">
<path d="M205,511c-17-2-18-17-25-29-2-3-32-7-37-9-16-5-35-23-51-25-7-2-13,9-22,4-15-6-9-41-21-54-19-21-48-12-45-57,2-35,54-57,53-88,0-15-11-25-7-41,3-12,20-24,21-33,1-4-15-10-11-23,4-16,43-21,44-32,8-44-47-70,3-103,20-13,130-43,138,3,3,14-11,59,1,69,7,5,27-16,32-19,1,1,0-22,8-18,5,2,8,19,20,3,7-9-11-55,42-50,22,2,17,23,23,34,3,4,10-5,15-5,11,0,27,41,19,54-3,5-91,35-83,54,2,5,24,15,30,22,7,10,20,36,21,48,1,5-4,21-2,24,8,15,22,21,25,39,2,11-12,80-9,81,18,7,26,0,29-13,1-5,0,9,2,13,0,0,24,19,27,20,13,7-5-5,0,13,2,9,31,4,24,41-2,10-15,10-19,17-3,6,1,14-4,20-17,21-64,18-83,4-13-9,2-42-23-36-8,2-19,15-27,19-27,16-55,21-85,26-6,1-12,24-24,27z" fill="currentColor"/>
</svg>