<?xml version="1.0" encoding="utf-8"?>
<svg version="1.1" xmlns="http://www.w3.org/2000/svg" xmlns:xlink="http://www.w3.org/1999/xlink"
   viewBox="0 0 512 512" xml:space="preserve">
<path d="M185,512c-27-3-68-23-78-50-3-8,0-24-4-29-10-13-45-16-35-41,8-22,31,8,40,5,8-3,20-35,24-44,15-30-8-52-24-78-5-8,1-15-1-21-2-5-8-8-9-14,1-4,3-12,2-15-13-43-62-65-27-126,24-40,80-61,126-52,15,3,26,23,38,25,22,4,78-33,92,1,6,16-30,26-43,32-7,4-26,5-20,10,3,3,17-2,23,0,10,4,6,17,11,25,0,2,30-4,34-4,37-3,75,0,101,31,5,7,6,32,6,39-2,48-43,71-86,78-7,1-27,1-33,3-4,3,5,11,6,13,4,7,1,21,8,27,8,6,16,4,18,16,1,6,1,18-6,19-3,1-10-4-9-1,3,5,16,16,22,19,19,10,61-14,70,18,1,6,1,13-4,17-6,5-11,1-16,5-8,6-15,15-26,17-19,5-68-19-68-19-6,3-3,14-2,20,0,0,35-7,51,4,13,9,16,34-3,38-6,1-10,6-17,7-27,5-55-14-81-13-19,1-12,14-21,23-14,13-41,15-59,15z" fill="currentColor"/>
</svg>