<?xml version="1.0" encoding="utf-8"?>
<svg version="1.1" xmlns="http://www.w3.org/2000/svg" xmlns:xlink="http://www.w3.org/1999/xlink"
   viewBox="0 0 512 512" xml:space="preserve">
<path d="M183,498c-42-16-69-4-40-50,11-18,22-31,39-43,3-3,18-4,20-8,4-8,3-47,0-55,1-1-35-10-41-13-37-18-75-35-115-43-5-1-14,10-17,8-3-2-2-7-2-11,7-48,86-38,120-39,0,0-41-35-41-37,1-9,4-99,6-100,6-4,10,10,14,10,1,0,0-11,4-12,6-2,15,18,18,17,1,1-2-13,5-9,21,12,43,43,49,67,2,8,3,69,11,39,5-17,8-50,19-63,37-44,91-80,134-118,4-4,24-28,31-25,11,3,7,35,8,34,6-5,41-40,48-37,13,7-2,32-3,40,1,7,35-31,35-9,0,12-10,20-11,29,0,5,10-6,12-2,2,5-2,13-3,18-3,7-12,13-14,20,1,3,13,0,11,3-22,43-74,40-87,55-18,22-17,61-37,83-3,3-35,18-35,22,0,1,53,4,58,5,15,1,61,31,55,43-4,8-93-14-106-8-37,18-61,62-81,96-14,24,37,33,46,38,8,5,12,17,21,22,2,1,28,2,25,7-14,23-127,24-156,26z" fill="currentColor"/>
</svg>