<?xml version="1.0" encoding="utf-8"?>
<svg version="1.1" xmlns="http://www.w3.org/2000/svg" xmlns:xlink="http://www.w3.org/1999/xlink"
   viewBox="0 0 512 512" xml:space="preserve">
<path d="M180,475c-51,4-117-22-123-79-7-64,32-124,77-166,16-14,32-28,51-40,6-4,23-5,18-11-5-5-16-12-17-20,0-3,1-6,0-8-9-15-55-44-28-68,11-9,31,6,35-15,4-19-21-26,15-34,11-2,15,11,23,13,5,1,18-2,23-2,23,0,22-23,49-11,11,5-1,20,1,27,2,4,7,6,10,10,2,3,2,8,6,10,21,9,30-9,28,30,1,12-20,17-21,27,0,0,23-2,40,0,33,5,68,16,86,48,58,102-72,216-151,257-38,19-80,31-122,33zM182,425c34,0,69-11,100-27,56-30,116-81,129-147,1-7,5-35-2-41-29-25-87-11-119,0-40,13-79,37-110,65-28,25-87,89-66,132,8,18,52,18,68,17z" fill="currentColor"/>
</svg>