<?xml version="1.0" encoding="utf-8"?>
<svg version="1.1" xmlns="http://www.w3.org/2000/svg" xmlns:xlink="http://www.w3.org/1999/xlink"
   viewBox="0 0 512 512" xml:space="preserve">
<path d="M269,497c-26,1-48-15-56-38-3-9,3-19,1-28-2-12-22-31-14-44,5-7,46-22,35-37-6-7-25-10-32-18-7-7-4-16-9-23-4-7-12-11-17-17-4-6-4-17-9-22-4-3-12,1-14-5-6-12-7-6-13-16-5-9-4-21-6-30,0,1-27-14-30-16-20-18-33-45-33-72,0-100,118-120,173-50,9,11-14-70,4-58,25,17,11,68,50,69,36,2,32-9,52-40,3-3,16-31,23-22,14,16-26,58-17,75,21,36,73-28,91-23,25,6-58,49-35,65,9,6,63-20,67-7,4,12-22,17-29,20-7,3-20,7-25,12-2,2-3,13-3,15,1,3-8,27-7,28,14,10,23,18,9,38-6,8-11,7-19,11-8,4,1,35-2,43-1,3-41,8-41,9,15,17,52,3,64,28,5,9-2,44-11,53-5,5-14,2-18,5-5,5-5,13-9,18,0,2-10-1-10-1-6,15,7,41-2,55-2,3-7,2-9,4-38,42-52,1-74,9-8,3-13,9-25,10z" fill="currentColor"/>
</svg>