<?xml version="1.0" encoding="utf-8"?>
<svg version="1.1" xmlns="http://www.w3.org/2000/svg" xmlns:xlink="http://www.w3.org/1999/xlink"
   viewBox="0 0 512 512" xml:space="preserve">
<path d="M256,501c-98-3-227-158-234-252-1-14,1-28,3-42,1-5,7-11,3-13-3-2-14,0-11-2,2-1,11,1,12-3,17-18,21-41,43-56,7-4,37-12,40-16,2-5-3-14,1-18,3-3,4,17,4,17,3,3,50,2,64,8,4,2,33,20,34,20,11-10,23-30,13-45-3-4-16-5-20-8-19-12-37-35-41-56,1-3-7-13-4-17,6-10,9,13,15,8,2-1-1-10-1-11,0-3,7-4,8-2,13,23,19,49,44,63,6,4,9-10,15-10,7,0,34,7,34,7,19-8,33-32,39-51,5-17,11-8,8,4,1,3,10-11,14-8,4,3,1,21-2,25-9,27-55,48-56,68,0,4-1,36,11,33,25-7,39-28,71-29,104-5,141,105,108,188-9,22-22,42-35,61,0,1-11,13-10,14,4,1,11-3,12,1,1,1-13,1-12,3,7,33,27-8,37,8,14,22-7,39-1,40,22,1,32-27,37,17,1,3-72,33-83,29-14-5-14-69-22-62-39,33-84,83-138,87z" fill="currentColor"/>
</svg>