<?xml version="1.0" encoding="utf-8"?>
<svg version="1.1" xmlns="http://www.w3.org/2000/svg" xmlns:xlink="http://www.w3.org/1999/xlink"
   viewBox="0 0 512 512" xml:space="preserve">
<path d="M283,461c-24-2-100,4-116-16-11-14,21-33,30-39,12-8,32-2,45-9,3-2,9-13,8-16,1-3-6-13-8-16-3-4-30-10-36-13-18-10-33-25-45-42-22-29-42-72-85-72-6,0-76,14-51-15,53-59,114-4,173-6,9,0,29-5,32-16,1-2-9-11-8-17,1-5,8-2,11-4,1,1,3-10,4-12,6-6,29-25,26-35-1-5-7-8-8-15-2-11,8-13,11-21,3-9-7-28,8-33,22-8,11,32,15,34,20,12-1,27,2,38,6,15,21,23,27,36,1,3,1,7,3,8,5,2,8-1,11,5,4,5-8,11-8,15,0,9,28,16,35,14,30-10-18-125,68-110,8,1,19,6,26,11,50,40,34,113-3,156-11,14-26,24-37,37-9,10-4,24-12,33-4,4-13,2-16-1-4-3-3-14-8-12-8,3-16,16-24,21-11,7-31,8-41,15-3,3-2,8-4,12-14,25,30,26,45,28,6,2,8,7,12,10,22,14,35,33,0,40-11,2-23,4-35,5-15,2-31,1-46,1z" fill="currentColor"/>
</svg>