<?xml version="1.0" encoding="utf-8"?>
<svg version="1.1" xmlns="http://www.w3.org/2000/svg" xmlns:xlink="http://www.w3.org/1999/xlink"
   viewBox="0 0 512 512" xml:space="preserve">
<path d="M176,401c-62,0-42-79-71-103-10-9-87-1-89,3-8,16,27,36,33,46,3,4-2,11-8,9-13-5-58-60-28-70,21-7,46-4,68-10,1,0,24-15,31-17,31-12,65-18,98-24,20-5,72-6,88-12,7-4,12-12,20-15,24-9,52-9,77-14,25-5,48-17,72-22,11-2,27-5,37,0,11,7,4,125-16,142-52,44-103,31-134-27-5-9-3-20-7-29-1-3-13,3-14,4-10,8-19,72-26,87-19,44-90,50-131,52z" fill="currentColor"/>
</svg>