<?xml version="1.0" encoding="utf-8"?>
<svg version="1.1" xmlns="http://www.w3.org/2000/svg" xmlns:xlink="http://www.w3.org/1999/xlink"
   viewBox="0 0 512 512" xml:space="preserve">
<path d="M253,509c-39-2-135-2-140-56-3-27,20-13,17-48-5-48-10-95-14-142-4-40-8-77,4-116,7-24,21-47,40-62,6-4,39-18,41-22,2-6,1-12,4-17,3-3,14-5,15-7,3-7,1-15,6-22,13-17,39-19,56-7,11,8,7,19,12,29,1,2,12,4,15,7,4,5,2,15,5,18,3,4,16,6,21,9,25,15,44,37,55,65,27,69,4,154-2,226-2,17-8,40-6,58,1,11,26,12,17,39-17,46-106,48-146,48z" fill="currentColor"/>
</svg>