<?xml version="1.0" encoding="utf-8"?>
<svg version="1.1" xmlns="http://www.w3.org/2000/svg" xmlns:xlink="http://www.w3.org/1999/xlink"
   viewBox="0 0 512 512" xml:space="preserve">
<path d="M262,489c-35,1-70,3-101-12-6-3,0-16-2-21-2-5-30-19-25-25,5-6,18-12,21-19,4-11,4-137,0-149-8-20-34-12-9-33,17-14,7-16,13-33,8-22,90-129,83-139-2-2-5-3-6-5-8-14,3-33,20-30,34,6,7,35,8,37,7,12,10,23,19,35,21,31,52,65,66,99,3,6-3,17,0,23,5,8,20,13,27,21,5,5-20,21-22,26-3,9,0,27,0,37,0,21-6,95,0,111,2,4,27,19,22,25-7,8-21,12-27,21-3,5,2,16,0,21-2,6-77,10-87,10z" fill="currentColor"/>
</svg>