<?xml version="1.0" encoding="utf-8"?>
<svg version="1.1" xmlns="http://www.w3.org/2000/svg" xmlns:xlink="http://www.w3.org/1999/xlink"
   viewBox="0 0 512 512" xml:space="preserve">
<path d="M251,464c-43-12-82-43-128-53-7-1-25,1-27-9-6-19,14-40,4-58-2-3-3,5-6,5-4,2-19,4-23-2-5-9-2-16-3-25-3-40-18-81-27-119-3-17-22-88-22-88,16-21,75-18,99-21,2,0,21-2,22-3,2-5-4-11,6-13,14-3,20,7,31,8,16,1,67-5,82-10,2,0,1-4,2-5,5-3,21-3,27-2,7,1,4,29,5,34,12,53,25,106,37,159,0,0,2,15,4,17,3,4,10,1,14,2,15,4,33,12,49,13,3,0,6-3,10-3,6,0,9,8,14,10,18,8,39,8,57,15,14,6,4,24,7,35,1,2,4,3,5,5,6,18-5,27-21,30-16,4-32,9-48,15-27,10-53,19-80,29-31,12-59,29-90,34z" fill="currentColor"/>
</svg>