<?xml version="1.0" encoding="utf-8"?>
<svg version="1.1" xmlns="http://www.w3.org/2000/svg" xmlns:xlink="http://www.w3.org/1999/xlink"
   viewBox="0 0 512 512" xml:space="preserve">
<path d="M155,502c-7-4,1-15,0-21,0-1-18-9-19-10-3-2,2-6,2-6-5-6-14-8-18-15-10-18-19-83-27-108-6-19-22-23-20-47,1-12,17-22,16-32-1-15-13-30-12-48,0-8,10-34,7-41-5-13-30-24-24-42,5-17,46-9,58-13,19-7,3-37,20-44,19-8,1,25,41-6,19-14,66-51,68-50,0,0,8,55,24,50,10-3,17-38,35-31,14,5,11,26,13,37,2,6,13-2,19-2,13,0,28,3,40,10,10,6-7,26-7,27,78,51,68,71,46,149-2,8,20,26,21,36,6,25-14,33-20,53-7,23-18,91-28,106-2,3-8,12-10,13-4,1-11,0-12,4-1,4,11,17,2,18-13,2-19-9-29-10-19-3-44,8-64,8-19,1-60-7-76-3-12,2-26,14-46,18z" fill="currentColor"/>
</svg>