<?xml version="1.0" encoding="utf-8"?>
<svg version="1.1" xmlns="http://www.w3.org/2000/svg" xmlns:xlink="http://www.w3.org/1999/xlink"
   viewBox="0 0 512 512" xml:space="preserve">
<path d="M258,485c-23-5-117,10-129-4-8-10-3-96-3-113,0-43,0-85,0-127,0-19-4-41,0-59,1-6,12-15,17-18,14-11,42-3,59-7,1,0,3-24,2-26-1-3-7-2-9-4-14-14,10-29,8-30-7-2-18,3-24,0-7-3-13-9-17-15-2-4-2-37,0-41,4-7,10-13,18-17,5-2,147-2,152,0,27,13,25,60,1,73-7,3-18-2-25,0-2,1,12,11,13,15,3,12-8,13-10,19-1,7,1,18,1,26,1,5,68-6,74,25,4,24,0,53,0,78,0,59,0,118,0,176,0,11,5,36-3,45-7,8-108,4-126,4z" fill="currentColor"/>
</svg>