<?xml version="1.0" encoding="utf-8"?>
<svg version="1.1" xmlns="http://www.w3.org/2000/svg" xmlns:xlink="http://www.w3.org/1999/xlink"
   viewBox="0 0 512 512" xml:space="preserve">
<path d="M360,468c-23,2-46-7-64-22-18-14-27-33-34-55-2-4-5-26-7-28-4-2-3,9-5,13-3,11-8,23-13,33-20,39-52,67-97,54-37-10-17-29-28-40-9-8-24,6-34-9-23-37-11-77,20-103,10-8,37-15,43-25,3-4-9,0-14-1-12-2-26-4-38-8-33-12-58-46-49-84,2-12,24-13,27-21,1-5-4-11-5-17-6-28,24-38,47-43,14-3,30-3,43,4,1,0,11,6,12,6,0-10,0-21,1-31,4-24,40-63,67-56,8,2,17,17,23,17,10,1,16-19,31-15,21,6,48,32,53,54,3,18-3,42-3,42,2,1,40-21,57-19,21,2,58,19,53,45,0,1-8,19-7,20,24,19,41,4,33,51-5,27-22,43-47,54-8,3-17,6-25,7-4,1-10-1-10,3,0,0,33,21,40,32,13,19,27,85-4,97-5,3-29,1-31,3-11,12,15,40-35,42z" fill="currentColor"/>
</svg>