<?xml version="1.0" encoding="utf-8"?>
<svg version="1.1" xmlns="http://www.w3.org/2000/svg" xmlns:xlink="http://www.w3.org/1999/xlink"
   viewBox="0 0 512 512" xml:space="preserve">
<path d="M268,512c-50-4-106-7-148-37-13-9-13-41-26-45-3,1-6,3-9,3-13-1-17-22-20-31-3-13-7-32-3-45,2-8,18-11,14-17-3-5-16,1-22,1-10-3-12-19-5-25,3-3,16,0,14-4-7-10-46,9-39-19,6-26,27,1,32,6,5,6,21,17,20,10-2-31-21-33-21-44,0-16,24-14,16-32-7-15-47-13-40-37,5-16,24-10,31,0,1,2,6,26,9,23,8-5,10-38,14-48,7-15,15-30,26-41,27-30,65-48,105-53,10-2,25,0,35-4,12-5,18-20,35-20,20,0,15,22,30,24,16,3,31-9,47,1,9,5,6,14,11,19,5,6,15,9,22,14,34,29,47,65,55,107,0,0,8-5,8-5,8-2,17,4,18,12,3,19-18,13-23,21-6,8,18,13,14,28-2,6-18,12-17,16,1,3,23,26,27,32,2,3,4,25,1,27-1,2-6,1-7,4-4,13,20,43,13,68-6,21-30-12-33-6-8,15-5,18-23,17-4,1-14,36-20,41-32,33-98,40-141,41z" fill="currentColor"/>
</svg>