<?xml version="1.0" encoding="utf-8"?>
<svg version="1.1" xmlns="http://www.w3.org/2000/svg" xmlns:xlink="http://www.w3.org/1999/xlink"
   viewBox="0 0 512 512" xml:space="preserve">
<path d="M125,469c-8,0-49,4-51-9-4-28,22-50,28-75,3-15,4-39,2-54-1-9-8-19-10-27-9-36-40-196-30-230,4-11,62-7,71-7,82-1,162-4,243,2,20,1,47-2,67,4,9,3,3,34,2,40-5,34-4,69-9,103-5,32-18,61-25,92-5,21,4,30,10,50,7,24,8,51,9,76,0,6,2,27-6,29-26,7-67,4-94-1-14-3-33-17-47-16-10,0-21,8-31,10-41,9-87,12-129,13z" fill="currentColor"/>
</svg>