<?xml version="1.0" encoding="utf-8"?>
<svg version="1.1" xmlns="http://www.w3.org/2000/svg" xmlns:xlink="http://www.w3.org/1999/xlink"
   viewBox="0 0 512 512" xml:space="preserve">
<path d="M289,467c-19,3-34-8-51-14-32-10-57,0-92-21-39-23-64-75-56-119,2-12,7-23,12-32,2-4,9-7,7-10-2-3-6,5-9,6-5,1-10,1-14,0-17-4-29-20-36-34-27-59,25-129,87-134,33-3,63,17,70,50,1,3,0,34,1,35,2,1,4-2,6-4,7-3,14-6,21-6,24-2,37,18,58,20,13,1,24-10,36-7,18,4,11,39,12,40,6,3,13,4,20,6,6,3,11,8,18,9,12,2,57-55,51,18,1,10,0,6-3,15-2,5-8,11-9,15-2,14,6,33,3,48-4,23-16,37-28,55-27,44-50,64-104,64z" fill="currentColor"/>
</svg>