<?xml version="1.0" encoding="utf-8"?>
<svg version="1.1" xmlns="http://www.w3.org/2000/svg" xmlns:xlink="http://www.w3.org/1999/xlink"
   viewBox="0 0 512 512" xml:space="preserve">
<path d="M346,500c-34,1-69-21-89-47-5-6-13-33-17-36-15-9-34-12-49-23-7-5-11-14-19-15-5,1-7,7-11,10-17,14-40,27-61,27-44,0-76-34-52-76,3-6,29-30,29-32,1-3-27-15-31-18-19-17-31-38-37-62-18-76,24-143,91-175,13-6,52-9,59-14,16-13,14-21,42-19,29,2,72,19,85,48,3,6,0,15,2,20,7,16,22,29,28,47,5,15,8,31,6,47-1,13-5,22-3,22,4,0,10,0,13-3,4-2,41-67,41-71,0-6-18-21-16-40,5-38,56-52,80-20,17,24,5,63-25,70-5,1-19-3-23,0-11,9-29,46-34,60,0,1,27,6,28,6,14,4,29,12,39,24,24,31-6,42-10,56-1,3,3,6,5,9,3,4,14,4,19,6,26,10,58,33,64,62,9,44-31,63-68,51-12-4-22-13-34-17-4-1-6,6-10,8-3,2-7,2-8,5,1,2,16,23,17,26,14,36-17,64-51,64z" fill="currentColor"/>
</svg>