<?xml version="1.0" encoding="utf-8"?>
<svg version="1.1" xmlns="http://www.w3.org/2000/svg" xmlns:xlink="http://www.w3.org/1999/xlink"
   viewBox="0 0 512 512" xml:space="preserve">
<path d="M252,473c-25-4-126,9-141-3-5-4-4-7-4-14,2-41,27-19,38-30,7-7-7-52,4-63,9-10,25,1,35-4,0,0,12-20,14-23,5-10,19-5,24-17,3-7,6-19,4-27,1-3-8-3-9-6-3-5,2-8,4-12,0,1-15-7-16-7-13-7-25-17-34-29-2-1-14-20-14-20-9,6-17,11-29,6-26-11,17-10-2-23-34-22-103-52-78-105,10-22,34-29,56-27,7,0,15,3,21,7,2,1,4,6,5,4,4-10-8-19-4-28,12-27,224-24,252-2,10,8-8,18-3,29,1,2,3-2,4-3,6-4,13-6,20-7,21-2,41,3,53,20,45,57-53,89-80,117-4,4,26,4,7,16-29,19-19-22-42,11-9,14-23,26-37,34,0,0-17,6-16,7,12,21-18,14,0,48,4,8,13,8,21,11,4,2,13,25,16,26,10,5,26-6,35,4,15,15-7,48,4,63,1,2,44,0,36,40-2,11-127,7-144,7z" fill="currentColor"/>
</svg>