<?xml version="1.0" encoding="utf-8"?>
<svg version="1.1" xmlns="http://www.w3.org/2000/svg" xmlns:xlink="http://www.w3.org/1999/xlink"
   viewBox="0 0 512 512" xml:space="preserve">
<path d="M304,504c-52-3-103-13-155-20-17-2-39-2-55-9-8-4-15-10-17-19-7-26-11-73,1-98,12-27,49-71,69-94,3-3,11-5,13-8,9-15-4-20-7-33-5-22-11-158,1-173,12-14,36-37,55-42,36-10,104,6,143,10,26,2,73-2,88,26,10,18,6,138,2,164-3,19-15,41-27,56-7,8-31,15-31,16-3,4,6,5,9,8,5,7,5,13,5,21,0,21,1,42-1,63-2,21-39,108-55,122-10,9-24,9-36,10z" fill="currentColor"/>
</svg>