<?xml version="1.0" encoding="utf-8"?>
<svg version="1.1" xmlns="http://www.w3.org/2000/svg" xmlns:xlink="http://www.w3.org/1999/xlink"
   viewBox="0 0 512 512" xml:space="preserve">
<path d="M279,504c-28-34-62-67-111-72-28-3-52,73-68,66-16-6,16-32,17-39,1-5-10-22-13-26-16-28-39-52-66-68-11-7-33,8-37,0-6-14,20-12,27-32,14-37,23-76,27-115,4-47,1-95-10-141-3-12-48-48-32-54,4-2,49,45,79,48,35,4,74-7,102-28,11-7,36-45,42-43,8,3,15,32,21,40,24,29,60,46,96,54,36,7,75,5,109-10,8-3,44-33,49-21,5,14-23,21-28,31-7,14-9,31-11,46-5,45-3,98,13,141,8,23,31,15,27,30-3,9-20,0-23,1-3,0-4,5-5,7-19,30-30,68-24,103,1,11,2,25,7,35,4,9,30,27,26,37-9,21-34-23-38-28-8-8-23-13-34-15-40-7-90,9-121,35-8,6-13,15-21,20z" fill="currentColor"/>
</svg>