<?xml version="1.0" encoding="utf-8"?>
<svg version="1.1" xmlns="http://www.w3.org/2000/svg" xmlns:xlink="http://www.w3.org/1999/xlink"
   viewBox="0 0 512 512" xml:space="preserve">
<path d="M408,494c-40-15-81-58-110-88-1-2-21-28-21-28-7,3-10,11-15,16-14,12-37,16-54,9-11-4-21-12-27-22-3-5-3-19-8-16-33,18-74,17-89-25-4-10,2-33-2-40-3-4-9-4-13-6-18-12-29-33-29-54,0-21,5-48,20-62,3-3,10-4,12-8,1-5-4-9-4-14-4-23,3-54,22-70,22-19,42-5,60-14,5-2,11-18,15-23,19-19,52-26,74-9,8,7,16,29,22,32,2,0,22-11,25-12,9-2,20-2,28,1,19,6,31,28,49,33,3,1,17-14,20-15,7-4-13,10-17,19,0,0,8,19,8,22,1,6-6,23-5,27,9,20,27,19,26,51,1,16-4,38-14,52-3,4-17,13-18,16-3,11,5,25,1,38-3,7-14,15-14,21-1,10,98,62,109,71,20,15-40,98-51,98z" fill="currentColor"/>
</svg>