<?xml version="1.0" encoding="utf-8"?>
<svg version="1.1" xmlns="http://www.w3.org/2000/svg" xmlns:xlink="http://www.w3.org/1999/xlink"
   viewBox="0 0 512 512" xml:space="preserve">
<path d="M448,463c-29-9-157-202-181-189-42,23,56,156,51,154-12-5-39,28-35,16,8-24,0-145-30-161-2,1-58,29-58,27-3-26-44-37-59-15-7,10-5-41-14-33-37,37-47,59-69,70-10,5,66-59,69-72,5-28-44,18-50,21-15,8,34-17,38-33,12-48-55-13-26-60,29-48-47-63-42-62,120,32-6-59,30-61,43-3,12,46,71,3,21-14-49-84-30-68,6,4,22,48,28,47,18-1,13-40,31-45,56-17,43,58,61-2,6-20-1,52,18,58,16,5,26,23,41,27,16,5,44-48,37-33-10,17-36,64-18,56,43-19,41-23,74-38,9-4-43,25-69,48-13,12,66,2,50,8-91,31-11,41,38,53,24,6-72-27-77-1-6,31,13,21,40,15,10-2-31,3-29,14,2,13,29,16,40,21,18,9-40-21-58-14-39,14,21,45,21,49,0,15-45-29-42-14,18,80,146,139,149,214z" fill="currentColor"/>
</svg>