<?xml version="1.0" encoding="utf-8"?>
<svg version="1.1" xmlns="http://www.w3.org/2000/svg" xmlns:xlink="http://www.w3.org/1999/xlink"
   viewBox="0 0 512 512" xml:space="preserve">
<path d="M264,494c-21-1-62,3-76-16-14-20,12-37,3-56-6-15-15-26-17-42,1-6,5-12,5-14-2-10-10-23-13-33-14-41-23-78-48-113-10-15-54-58-36-80,37-45,97,114,114,64,21-62-36-113-29-167,5-37,39-16,52,3,0,0,6-10,7-11,6-5,15-6,22-4,40,11-9,145,39,170,10,5,22-19,24-24,9-19,40-111,65-108,44,4,10,71,3,92-3,11-25,74-21,82,8,15,32,20,35,39,3,15-28,75-38,91-4,6-11,11-14,18,1,2,4,2,4,4,1,4,1,7,1,11-4,16-16,22-12,42,8,35,22,43-28,49-14,2-28,3-42,3z" fill="currentColor"/>
</svg>