<?xml version="1.0" encoding="utf-8"?>
<svg version="1.1" xmlns="http://www.w3.org/2000/svg" xmlns:xlink="http://www.w3.org/1999/xlink"
   viewBox="0 0 512 512" xml:space="preserve">
<path d="M239,499c-34-14-82-19-111-44-23-19,6-98,4-121,0-6-10-12-10-20-1-22,5-46,7-69,4-39-6-63,19-101,13-20,32-28,48-43,9-8,14-20,24-28,8-6,18-2,25-6,20-13,28-49,60-52,14-2,39,12,52,17,13,4,44,9,52,20,16,22-8,86-12,110-3,26-1,54-2,80,1,24,34,9,28,39-14,74-38,24-57,29-5,2-18,18-22,23-9,13-9,31-19,44-1,1-7,1-8,0-24,33-34,108-78,122z" fill="currentColor"/>
</svg>