<?xml version="1.0" encoding="utf-8"?>
<svg version="1.1" xmlns="http://www.w3.org/2000/svg" xmlns:xlink="http://www.w3.org/1999/xlink"
   viewBox="0 0 512 512" xml:space="preserve">
<path d="M243,506c-33-6-65-25-97-39-6-3-22-13-28-13-9,1-16,26-27,21-21-10-14-131-16-155,0-2-9,19-25,19-17,1-30-17-26-32,3-14,19-23,32-19,8,3,18,25,19,17,1-16,4-42,0-57-2-6-11-17-14-25-16-39-32-78-48-117-3-9-17-28-10-38,10-15,214-27,219-18,7,13,22,76,35,80,15,6-18-60-10-71,11-13,60-16,74-10,3,1,4,6,7,6,4,0,2-22-2-21-8,2-9,12-19,12-20,1-29-26-14-38,13-11,20,4,30,3,19-1,34-10,53,1,12,6,22,33,29,35,24,8,44,1,62,23,10,14,5,30,12,43,5,11,27,13,15,34-3,4-9,9-14,10-3,0-8-3-9,0-2,8,11,18,5,30-5,11-20,9-23,14,0,0,2,22,1,26-2,5-15,16-15,18,0,4,21,1,21,8,1,11-5,33,0,43,5,10,21,10,23,26,2,10-22,4-23,9-3,15,0,33,0,49,0,17,8,62-4,76-15,17-181,46-213,52z" fill="currentColor"/>
</svg>