<?xml version="1.0" encoding="utf-8"?>
<svg version="1.1" xmlns="http://www.w3.org/2000/svg" xmlns:xlink="http://www.w3.org/1999/xlink"
   viewBox="0 0 512 512" xml:space="preserve">
<path d="M286,491c-27-11-50-32-64-58-3-5-2-13-6-17-3-2-16,1-20-2-5-2-9-12-14-9-11,9-14,44-37,37-35-10-20-86-26-96-4-5-17-6-22-13-7-9-2-20-6-29-2-3-7-1-10-2-16-6-30-16-43-26-9-8-20-16-26-26-3-4,3-9,6-13,11-16,26-29,43-39,10-6,26-7,34-16,7-9-4-36,7-53,13-22,29-10,44-17,10-5,3-33,31-32,8,0,15,0,23,2,3,2,7,7,9,4,9-15,7-32,29-37,7-2,21,5,25,4,14-6,19-22,38-23,27-1,31,27,38,30,6,2,18-6,26-4,31,8,28,46,23,70,0,2,14-4,15-4,11-2,24-3,35,0,42,12,19,39,24,48,7,10,23,12,29,25,13,30-11,37-16,56-4,15,3,28-8,43-5,6-20,10-23,16-3,6,23,43-9,65-7,5-21,4-27,9-11,10-7,26-32,38-11,5-45,3-46,3-17,19-19,48-44,66z" fill="currentColor"/>
</svg>