<?xml version="1.0" encoding="utf-8"?>
<svg version="1.1" xmlns="http://www.w3.org/2000/svg" xmlns:xlink="http://www.w3.org/1999/xlink"
   viewBox="0 0 512 512" xml:space="preserve">
<path d="M304,503c-10,1-2-21-3-21-46-7-42-18-64-57-8-14-22-26-28-39-1-5,3-10,0-14-11-20-76-32-97-34-9,1-31-25-33-24-7,3-42,32-48,29-8-2-8-28-9-34-2-16-14-69,2-79,5-3,39-13,40-17,3-9-22-7,7-18,15-6-66-18-71-29-4-8,23-36,28-42,40-51,36-51,93-35,1,1,21-35,23-38,2-2,49,12,50,10,1-16-14-55,15-59,11-1,7,37,15,41,6,2,46,2,46,7,0,3-6,26-1,27,12,3,20-48,28-61,5-8,116,15,115,24-3,25-28,83-27,106,0,16,43,9,40,17-17,48-43-2-34,88,1,9,19-6,28-4,14,2,18,15,24,25,12,21,33,40,40,63,2,7,0,16-2,22,0,1-6,7-5,8,6,3,24,12,21,21-2,4-31,5-30,9,2,8,15,43,6,48-11,7-9-23-28-9-8,7,26,16-12,39-28,17-19,8-38-7-6-4,14,26-8,31-22,5-31-33-35-30-17,11-33,24-48,36z" fill="currentColor"/>
</svg>