<?xml version="1.0" encoding="utf-8"?>
<svg version="1.1" xmlns="http://www.w3.org/2000/svg" xmlns:xlink="http://www.w3.org/1999/xlink"
   viewBox="0 0 512 512" xml:space="preserve">
<path d="M413,509c-33,1-16-23-14-36,2-13-3-29-5-41,1,0-2-21-3-20-9,11-6,56-15,73-7,14-41,13-46-3-3-11,5-15,6-25,3-21-17-132-37-145-8-4-31,32-34,38-18,38-9,132-28,155-4,5-14,3-20,3-18,0-33-6-27-27,1-4,7-8,7-11,3-17-3-52-9-68,1-2-1,3-1,5-1,8-1,17-2,26-2,27,2,60-31,60-7,0-15,2-21-3-3-2-7-9-7-13,0-11,7-14,8-22,4-18-4-50-9-67,1-3-22-3-26-4-36-8-72-24-86-61-9-22-8-49,1-71,2-7,8-11,9-18,4-18-15-46-4-76,3-8,10-24,21-23,36,4,52,54,95,51,2,0,15-35,17-39,30-53,85-81,144-83,60-2,117,35,140,89,6,15,11,29,15,45,1,4,1,16,2,13,32-37-56-124-17-183,10-15,34-34,53-21,27,20-8,53-5,77,4,47,38,84,28,135-7,35-46,53-51,65-4,10-5,124-8,150-5,30-2,75-40,75z" fill="currentColor"/>
</svg>