<?xml version="1.0" encoding="utf-8"?>
<svg version="1.1" xmlns="http://www.w3.org/2000/svg" xmlns:xlink="http://www.w3.org/1999/xlink"
   viewBox="0 0 512 512" xml:space="preserve">
<path d="M134,409c-42-2-82-38-83-83,0-5,3-9,3-13,0-6-4-11-3-17,3-12,17-21,19-32,2-11-17-24-2-36,17-13,65,8,63-28,1-9-12-17-20-13-10,3-17,14-27,18-28,11-67,0-79-30-5-14-3-30,4-43,35-69,118-4,123-58,4-33-20-23-39-16-11,4-17-11-10-19,40-44,114-2,92,56-24,65-101,6-120,36-4,7-5,20-2,28,16,29,49,3,70,0,11-2,23-2,34,2,12,5,23,13,31,23,2,3,7,25,7,26,7,4,47-16,55-18,60-19,238-97,249,13,7,70-122,110-175,133-51,21-137,63-190,71z" fill="currentColor"/>
</svg>