<?xml version="1.0" encoding="utf-8"?>
<svg version="1.1" xmlns="http://www.w3.org/2000/svg" xmlns:xlink="http://www.w3.org/1999/xlink"
   viewBox="0 0 512 512" xml:space="preserve">
<path d="M239,506c-34-3-127,6-151-24-8-11-3-75-3-92,0-52-6-108,0-160,2-15,38-23,39-26,0-2-20-22-22-26-17-30-17-75,13-97,28-21,67,5,76,1,13-6,15-71,61-74,33-2,44,43,44,70,0,12,1,25-1,37,0,3-4,9-2,8,22-15,47-24,68-38,7-5,11-14,19-18,23-12,64,3,75,26,4,8-25,19-29,21-47,19-50-29-58,9-2,6-10,19-10,25,0,0,19,14,20,16,6,8,9,20,9,30,0,1-4,16-3,16,8,7,22,8,23,22,4,49,0,100,0,150,0,29,7,66,1,94,0,3-4,6-6,8-31,26-123,22-162,22zM160,197c8-6,42,3,47-5,8-13-2-26,19-40,8-5,17-8,26-8,5,0,13,8,16,3,13-20,17-57,12-80-3-16-14-49-36-37-27,13-32,69-45,75-13,6-59-34-85,1-22,30,8,96,46,91z" fill="currentColor"/>
</svg>