<?xml version="1.0" encoding="utf-8"?>
<svg version="1.1" xmlns="http://www.w3.org/2000/svg" xmlns:xlink="http://www.w3.org/1999/xlink"
   viewBox="0 0 512 512" xml:space="preserve">
<path d="M255,482c-58,3-75-54-109-88-19-19-46-17-65-36-34-34-9-76-15-118-3-19-35-132-31-141,10-21,103-30,121-23,4,2,12,82,14,94,5,33,9,71,24,101,21,41,69,64,99,97,36,39,22,115-38,114zM415,433c-60,3-77-58-114-92-18-17-44-14-62-32-32-34-8-77-14-120-4-25-34-125-31-137,5-21,101-33,120-25,6,2,14,85,16,97,4,29,6,73,24,99,28,40,78,66,103,103,28,41,16,107-42,107z" fill="currentColor"/>
</svg>