<?xml version="1.0" encoding="utf-8"?>
<svg version="1.1" xmlns="http://www.w3.org/2000/svg" xmlns:xlink="http://www.w3.org/1999/xlink"
   viewBox="0 0 512 512" xml:space="preserve">
<path d="M436,492c-24-7-37-38-59-46-5-2-11,1-16,0-4-2-4-8-8-9-2,1-13,4-17,3-14-2-29-7-41-13-11-5-24-10-33-17,0,0-3-10-5-8-20,28-34,58-71,66-3,0-16,3-19,1-5-5-1-30-6-37,1-2-20-17-14-19,21-5,35,1,54-15,5-3,21-11,14-12-13-2-46,21-68,3-2-2,7-27,8-30,2-11-7-17-10-27-1-7,22,4,24,5,12,3,44,2,53-7,2-3,7-45,5-49-2-5-6-8-10-12-3-4-5-10-9-12,0,0-40,27-45,29-42,21-95-1-111-43-22-56,29-106,59-146,27-38,47-93,102-78,52,14,136,92,113,154-7,20-50,33-52,41,1,3,3,4,5,6,14,17,21-11,39-1,4,3,5,16,10,13,14-9-13-28,36-21,10,1,42,11,45,22,2,8-7,15-8,22,1,3,15-14,26-9,14,7,39,71,27,85-6,7-20,0-25,4,1,1,27,6,23,25-5,20-35,30-35,51,0,20,59,70,19,81z" fill="currentColor"/>
</svg>