<?xml version="1.0" encoding="utf-8"?>
<svg version="1.1" xmlns="http://www.w3.org/2000/svg" xmlns:xlink="http://www.w3.org/1999/xlink"
   viewBox="0 0 512 512" xml:space="preserve">
<path d="M258,481c-29,5-126-21-94-66,18-25,51-21,62-31,7-7-16-18-19-23-4-7,1-16-2-21-4-5-11-7-16-11-37-33-31-101-40-145-3-14-13-33-12-47,0-6,9-17,9-20-3-12-20-20-12-33,15-26,31,6,38,16,1,1,17-4,16-6-2-4-17-42-9-44,33-7,6,59,46,39,6-3-13-56,9-56,9,0,5,53,10,54,5,0,10,0,15,0,5,0,12,4,16,1,4-4-3-42-2-42,37-9,16,23,25,28,2,1,3-4,4-6,5-7,10-12,17-16,38-21,85,8,85,50,0,20-8,51-27,62-3,2-13,2-16,5-3,3-2,8-3,13,0,0,30-10,45,1,21,14,18,45,14,66-4,30-15,75-49,83-25,5-37-12-60,4-2,2-6,2-7,5-3,6,2,13-3,21-3,4-26,15-19,22,9,9,45,6,63,30,36,45-58,66-84,67z" fill="currentColor"/>
</svg>