<?xml version="1.0" encoding="utf-8"?>
<svg version="1.1" xmlns="http://www.w3.org/2000/svg" xmlns:xlink="http://www.w3.org/1999/xlink"
   viewBox="0 0 512 512" xml:space="preserve">
<path d="M282,500c-40,1-109-9-109-60,0-11,0-22,8-30,22-23,81-27,86-32,3-4,4-23,4-27,0-5,3-12,0-16-1-1-4,1-6,1-21-2-40-6-60-12-42-14-65-42-88-77-5-8-13-14-15-23-3-13,10-35,9-38-4-17-80-39-80-74,1-57,83,37,84,37,3,3,1-7,2-11,43-132,249-161,320-33,9,15,17,38,19,59,1,8-1,18,1,26,2,8,8,14,8,23,0,14-8,22-16,33-26,40-53,66-99,81-10,4-49,3-55,10-3,3,0,8,0,12,0,5,0,26,4,30,7,7,63,10,84,31,9,10,10,21,10,34-2,49-73,57-111,57z" fill="currentColor"/>
</svg>