<?xml version="1.0" encoding="utf-8"?>
<svg version="1.1" xmlns="http://www.w3.org/2000/svg" xmlns:xlink="http://www.w3.org/1999/xlink"
   viewBox="0 0 512 512" xml:space="preserve">
<path d="M289,509c-56,3-111-4-166-8-18-2-35,7-53,1-23-7-35-28-41-49-8-26-10-56-8-83,1-11,7-23,6-32-1-39-45-116-8-154,7-8,17-7,24-13,7-6,7-17,15-22,22-15,54-20,79-24,19-3,33-2,44,15,3,4,3,16,8,14,4-1,15,0,13-5-20-43,1-96,56-90,33,4,53,30,50,63,1,8-5,15-7,22,0,1,16,3,17,3,6,2,15,10,20,10,11,0,23-7,34-7,21,0,30,13,47,19,32,11,52,0,81,33,28,33-17,73-36,96,0,0,16,10,16,10,16,12,19,24,14,42-8,29-25,60-45,82-9,11-22,17-31,28-16,17,67,7,55,26-15,23-156,22-184,23z" fill="currentColor"/>
</svg>