<?xml version="1.0" encoding="utf-8"?>
<svg version="1.1" xmlns="http://www.w3.org/2000/svg" xmlns:xlink="http://www.w3.org/1999/xlink"
   viewBox="0 0 512 512" xml:space="preserve">
<path d="M380,510c-64-45-267,15-334-37-7-5-8-19-13-23-51-40-20-76,6-115,7-10-30-14-25-24,19-36,87,16,66-38-4-9-59,27-71,1-3-7,3-9,7-13,6-5-8-13-8-21,0-9,93-55,103-51,40,15-34,75-17,91,4,4,1-11,5-15,8-6,29-13,35-18,4-4-7-10-9-16-4-10-5-28,2-37,17-23,44,33,48,38,4,5,11-6,16-8,12-5,5-49,5-60,0-34-41-10-44-29-9-48,11-32,41-53,35-24,26-52,90-36,74,18,7,228,38,226,3,0,10,6,11,6,5-2,35-81,59-68,13,7-12,43,3,45,26,4,9,10,17,22,3,5,22,4,28,16,3,5,8,37,15,35,6-2-33-138,42-84,36,26-25,64-33,90-2,8,21,10,25,12,14,5,20,31,22,44,7,33-18,35-43,41,0,0,4,17,4,18,1,10-2,25-7,34-3,6-32,22-42,25-6,2-6-20-12-16-11,7-17,14-30,18z" fill="currentColor"/>
</svg>