<?xml version="1.0" encoding="utf-8"?>
<svg version="1.1" xmlns="http://www.w3.org/2000/svg" xmlns:xlink="http://www.w3.org/1999/xlink"
   viewBox="0 0 512 512" xml:space="preserve">
<path d="M117,490c-18,2-4-23-8-21-6,3-18,15-26,6-4-5,9-28,10-33,2-5,18-70,16-70-2,1-12,2-13-2-4-14,14-48,18-62,8-25,23-86,16-110-3-12-9-15-6-30,0-4,9-13,9-14,1-3-12-13-8-17,1-1,11-5,9-8-9-12-63-48-47-63,8-8,22-13,32-17,2-1,7,4,8,3,2-2-1-6,0-8,13-13,36-9,52-12,20-5,60-15,81-11,12,2,22,9,34,12,16,4,31,4,47,14,24,16,73,66,81,94,2,6-7,12-6,15,1,1,14,1,16,4,20,23,16,118,11,147-3,19-13,37-16,57-2,9,6,45,0,50-3,3-17,3-18,5-2,4,1,9,0,14-1,6-49-2-56-4-12-3-24-8-34-14-2-1-5-6-6-4-3,7,4,14-3,20-43,37-137,59-193,59z" fill="currentColor"/>
</svg>