<?xml version="1.0" encoding="utf-8"?>
<svg version="1.1" xmlns="http://www.w3.org/2000/svg" xmlns:xlink="http://www.w3.org/1999/xlink"
   viewBox="0 0 512 512" xml:space="preserve">
<path d="M260,472c-59,0-167-8-182-80-9-41-24-152-3-186,8-13,47-40,48-41,17-42-52-77,4-119,13-10,33-12,48-6,7,2,25,22,30,18,7-6,10-15,18-21,19-13,46-13,65,0,5,4,16,24,23,20,4-3,7-8,11-11,23-17,57-10,74,13,11,15,11,41,1,57-3,4-8,7-9,11-3,10,0,28,0,38,1,6,27,19,33,25,9,10,18,23,22,36,8,26,0,57-2,84-4,31,0,74-18,102-32,51-108,59-163,60z" fill="currentColor"/>
</svg>