<?xml version="1.0" encoding="utf-8"?>
<svg version="1.1" xmlns="http://www.w3.org/2000/svg" xmlns:xlink="http://www.w3.org/1999/xlink"
   viewBox="0 0 512 512" xml:space="preserve">
<path d="M227,510c-33-5-106-20-106-20-3-21-3-53,0-74,1-4,18,1,20-1,4-4-1-26,0-31,1-6,38-1,43-2,6-1-24-4-32-17-8-12-5-28-10-42-8-19-21-35-26-55-4-17-7-150-2-163,10-23,36-37,55-53,14-12,28-27,49-24,10,1,19,12,27,18,13,10,27,18,18,37-1,2-5,3-5,5,1,10,7,19,4,30-4,19-39,22-55,23-26,2-29-10-14,27,11,24,29,45,40,69,1,1,6-8,18-19,11-11,27-19,42-21,42-6,100,27,126,58,30,36-16,91-47,110-11,7-26,8-37,15-10,7,43,5,43,8,1,8-3,24,0,32,2,3,20-2,21,2,3,21,4,56,0,76-1,5-37,4-42,4-43,3-86,6-130,8z" fill="currentColor"/>
</svg>