<?xml version="1.0" encoding="utf-8"?>
<svg version="1.1" xmlns="http://www.w3.org/2000/svg" xmlns:xlink="http://www.w3.org/1999/xlink"
   viewBox="0 0 512 512" xml:space="preserve">
<path d="M275,481c-20,1-126,2-137-20-7-16,49-17,43-21-14-11-28-19-40-32-80-84-70-310,51-356,39-14,77,6,110,25,0,0,6-19,12-15,8,5-16,21,3,26,0,0,6-15,10-22,8-14,31-43,51-31,21,13,20,49,13,69-2,5-12,11-12,13,0,2,4,2,5,4,4,2,6,7,7,12,1,9-9,25-7,32,5,22,25,47,32,72,22,84-6,155-79,201-6,4,57,7,49,23-12,24-89,20-111,20z" fill="currentColor"/>
</svg>