<?xml version="1.0" encoding="utf-8"?>
<svg version="1.1" xmlns="http://www.w3.org/2000/svg" xmlns:xlink="http://www.w3.org/1999/xlink"
   viewBox="0 0 512 512" xml:space="preserve">
<path d="M343,494c-52,4-79-38-104-76-2-2-4,8-11,21-6,10-13,20-22,29-25,24-62,28-93,14-50-23-45-80-26-122,2-5,20-33,19-35,1-2-4,0-6,0-5,1-10,1-16,1-28-3-55-18-57-49-3-39,28-69,61-83,9-4,18-7,28-9,3-2,11,1,11-3,0-7-4-12-6-18-5-22-4-47,3-68,30-78,128-103,198-62,35,20,60,60,58,102,1,11-1,22-5,33,0,1-7,17-6,17,26,4,52,4,75,18,40,22,56,80,24,116-8,10-20,16-33,19-8,3-36,2-37,4-1,2,18,41,19,47,14,55-14,101-74,104z" fill="currentColor"/>
</svg>