<?xml version="1.0" encoding="utf-8"?>
<svg version="1.1" xmlns="http://www.w3.org/2000/svg" xmlns:xlink="http://www.w3.org/1999/xlink"
   viewBox="0 0 512 512" xml:space="preserve">
<path d="M79,494c-17-8-6-106-18-122-8-10-34,1-35-23-1-24,56-17,52-26-8-16-15-187-12-212,1-8,16-5,12-15-5-12-17-5-12-28,3-17,27,4,31,4,12,0,54-23,58-29,6-9-4-38,13-43,30-8,15,48,20,65,4,10,24,1,31,8,0,0,46-10,61-10,17,0,92,14,100,11,11-4,11-17,30-11,9,3-6,75-8,82-13,47,45-48,49,15,3,49-4,59-47,77-5,2,9,4,10,8,5,16-1,23-11,31-2,2,91-10,93-4,12,29-77,78-94,94-3,3,11,10,12,12,4,12-17,24-12,36,7,16,18,54,12,75-2,7-70-3-75-8-2-2-8,12-12,12-15,1-20-12-27-12-6,0-9,12-20,12-39,0-177-19-201,1z" fill="currentColor"/>
</svg>