<?xml version="1.0" encoding="utf-8"?>
<svg version="1.1" xmlns="http://www.w3.org/2000/svg" xmlns:xlink="http://www.w3.org/1999/xlink"
   viewBox="0 0 512 512" xml:space="preserve">
<path d="M264,496c-29,1-47-35-67-52-8-7-46-26-59-23-12,3-43,26-52,18-9-8,5-35,8-45,2-9,11-31,3-26-26,16-35,55-62,8-23-40-37-94-29-140,2-10,6-22,14-28,1-1,6,1,6-3,1-11-7-26-8-37-6-65,25-131,92-149,41-11,89,5,121,31,9,8,28,38,31,38,2,0,2-3,3-4,8-12,18-23,28-33,46-40,122-47,170-6,29,24,41,58,43,94,4,109-77,195-146,269-19,20-70,86-96,89z" fill="currentColor"/>
</svg>