<?xml version="1.0" encoding="utf-8"?>
<svg version="1.1" xmlns="http://www.w3.org/2000/svg" xmlns:xlink="http://www.w3.org/1999/xlink"
   viewBox="0 0 512 512" xml:space="preserve">
<path d="M161,469c-8,2-12-7-18-9-9-2-24,5-29-8-2-4,2-11,1-14-1-3-11-9-13-14-1-2-31,10-35,11-4,1-51-13-52-16-1-3,2-14,1-15-3-5-11-3-13-10-6-19,29-18,35-27,9-13,13-32,16-48,5-21,15-47,17-69,1-9-6-23-7-32-2-25,3-51,20-70,4-4,12-8,15-13,16-23,18-50,52-57,37-7,54,30,91,20,5-1,8-6,12-9,18-12,41-16,62-11,30,8,52,32,63,60,2,5,2,13,6,17,10,11,53,32,72,50,61,62,75,162,3,222-30,25-86,48-125,40-9-2-14-14-22-16-12-4-34,2-47,2-17,0-43-6-58-2-17,5-30,15-47,18z" fill="currentColor"/>
</svg>