<?xml version="1.0" encoding="utf-8"?>
<svg version="1.1" xmlns="http://www.w3.org/2000/svg" xmlns:xlink="http://www.w3.org/1999/xlink"
   viewBox="0 0 512 512" xml:space="preserve">
<path d="M108,511c-56-7-114-80-77-142,28-46,59,0,85,11,0,0,8-25,9-28,6-11,8-19,13-28,1-2,6-4,4-5-24-7-38,3-56-23-45-61,11-174,43-228,9-15,10-34,26-44,16-11,44-8,62-6,89,10,192,152,173,241-7,33-49,43-45,52,8,18,18,33,24,51,3,9,3,22,8,30,1,3,18,7,21,6,3,1,28-78,74-59,4,2,8,4,11,9,20,28,16,145-31,148-23,1-67-23-75-22-2,0-14,24-38,22-10,1-24-3-31-11-7-8-12-16-12-15-4,23-29,35-53,34-29-2-47-42-66-37-3,1-4,7-5,8-21,21-35,31-64,35z" fill="currentColor"/>
</svg>