<?xml version="1.0" encoding="utf-8"?>
<svg version="1.1" xmlns="http://www.w3.org/2000/svg" xmlns:xlink="http://www.w3.org/1999/xlink"
   viewBox="0 0 512 512" xml:space="preserve">
<path d="M93,507c-41-1-68-43-73-80-4-32,10-65,41-76,5-1,17,0,21-2,6-5,19-30,28-38,3-2,23-14,24-16,1-4,5-29,4-32-4-12-30-23-35-52-4-26,2-54,11-77,1-4,10-18,10-23,0-2-18-18-21-24-12-36,14-61,47-63,23-1,35,26,39,27,5,0,55-15,77-13,10,1,48,14,53,14,5,0,7-8,11-11,16-11,39-11,55,0,22,16,24,49,7,69-2,3-8,4-9,7-1,11,23,52,17,84-4,24-19,38-36,55-1,1,4,7,5,9,2,5,4,12,5,18,2,11,22,18,30,25,5,5,15,24,21,26,4,2,9-2,13-1,29,2,51,28,55,55,8,50-28,137-93,112-22-9-35-44-52-49-5-1-20,10-25,12-18,7-39,12-59,13-20,1-40,1-60-3-7-1-24-10-31-9-25,6-41,44-80,43z" fill="currentColor"/>
</svg>