<?xml version="1.0" encoding="utf-8"?>
<svg version="1.1" xmlns="http://www.w3.org/2000/svg" xmlns:xlink="http://www.w3.org/1999/xlink"
   viewBox="0 0 512 512" xml:space="preserve">
<path d="M259,511c-72-2-156,3-181-77-3-9-2-51-8-56-5-4-11-3-13-10-3-11,10-14,9-19-2-14-10-29-10-43,0-12,11-8,10-19-2-11-2-24-5-34-6-18-16-20-18-48-1-19,8-34,11-52,1-5-4-8-1-14,1-1,35-24,37-33,1-7-13-14-6-24,9-15,22-6,34-5,4,0,3-7,6-10,6-5,15-6,22-4,5,1,11,10,14,10,6,1,31-5,36-8,5-3,3-15,14-18,14-4,16,14,28,14,11,0,27,2,38,0,3,1,4-7,8-6,12,5,28,14,42,12,4,0,4-7,7-9,12-5,13,6,21,8,19,5,25-15,39,18,1,1,9-4,10-4,5-1,13,0,18,4,13,10,10,20,9,32,0,2,19-2,26,10,5,9-5,14-5,20,2,26,20,40,9,75-2,7-11,12-13,17-4,10-10,46-7,57,1,4,10,3,9,14,1,7-11,36-7,41,3,3,9,4,10,10,3,13-10,11-15,17-13,18-6,81-34,105-33,29-103,28-144,29z" fill="currentColor"/>
</svg>