<?xml version="1.0" encoding="utf-8"?>
<svg version="1.1" xmlns="http://www.w3.org/2000/svg" xmlns:xlink="http://www.w3.org/1999/xlink"
   viewBox="0 0 512 512" xml:space="preserve">
<path d="M157,497c-11,0-22,0-33-2-22-3-48-11-54-35-19-71,94-97,94-123,0-8-15,7-23,9-16,5-37,5-48-10-17-23,2-38,5-59,2-15-15-43-8-66,8-28,32-53,46-78,5-9-17,5-35,2-20-3-46-43-33-62,28-40,107-80,145-30,30,40,10,88-11,127-2,3,8-3,11-4,5,1,12,3,14-1,8-16-1-58,22-93,41-63,121-65,165-8,2,2,6-8,6-8,4-4,9-4,15-4,7,0,51,16,55,20,25,24-31,48-40,58-17,21,57,59,22,83-24,16-65-11-79,17,1,1,27,56-2,69-19,8-42-3-61,2-8,1-2,17,4,22,3,4,10-1,15-1,38,2,68,26,73,65,8,62-79,114-133,101-30-7-46-50-28-74,16-21,66,1,65-14-3-62-41,0-61-22-8-8-9-26-11-37-2-10-3-37-5-28-8,56-37,60-65,98-6,8,18-2,28-1,24,2,38,21,34,45-6,39-59,41-89,42z" fill="currentColor"/>
</svg>