<?xml version="1.0" encoding="utf-8"?>
<svg version="1.1" xmlns="http://www.w3.org/2000/svg" xmlns:xlink="http://www.w3.org/1999/xlink"
   viewBox="0 0 512 512" xml:space="preserve">
<path d="M223,462c-34-1-70,3-103-5-18-4,7-30,11-33,3-3,12-7,8-7-16,1-32,1-49,0-10,0-74,5-75-12,1-23,78-60,96-66,13-4,25,2,37,1,9-2,18-22,21-29,20-41,13-89,39-127,11-17,26-30,44-39,6-3,19,1,20-8,0-7-7-12-10-18-4-9-11-69,9-67,18,2,12,57,21,67,3,2,1-10,4-21,4-14,12-48,31-51,6,1,13,5,16,10,1,2,0,8,2,7,7-1,7-14,18-11,27,7,31,60,40,81,2,4,3-8,4-12,4-10,8-18,14-26,10-14,53-59,74-36,35,39-35,108-39,131-1,6,6,18,7,25,2,9,12,52-10,46-11-3-15-16-22-23-2-1-2,5-3,7-4,10-7,21-11,32-11,30-17,61-21,93-1,13,0,29-4,42-2,9-23,9-26,0-5-15,3-47,3-64,0-7,0-14,0-21,0-2,0-8-1-6-12,20-8,50-12,73-2,12-5,28-12,39-19,29-90,28-120,29z" fill="currentColor"/>
</svg>