<?xml version="1.0" encoding="utf-8"?>
<svg version="1.1" xmlns="http://www.w3.org/2000/svg" xmlns:xlink="http://www.w3.org/1999/xlink"
   viewBox="0 0 512 512" xml:space="preserve">
<path d="M203,493c-15-6-22-21-44-25-6-1-5,12-14,9-8-3,4-14,4-15-8-14-24-1-28-7-2-3,5-7,4-10-21-35-59-41-62-95-2-28,27-96,26-100-2-22-16-35-9-60,5-19,16-35,32-45,2-1,21-10,20-10-14-25-123,2-129-23-2-7,2-18,9-19,12-2,113-5,126-2,20,5,53,68,80,53,12-6-20-11-25-17-9-11-19-35-24-49-4-10,47-33,53-36,20-9,43-16,66-20,13-2,38,2,49-3,9-4,7-15,22-15,16,0,11,16,18,21,20,14,55,17,84,40,14,12,48,40,51,60,1,2-6,26-8,26-21,9-56,30-75,35-3,1-30-4-30-2,1,5,11,14,13,18,17,27,13,61,22,87,1,3-7,48-8,58,0,5-2,38-2,38-7,6-18,8-18,24,0,24-10,1-9,15,0,5,4,10,0,16-3,4-8-3-10-2-7,3-15,14-20,19-1,2-7,14-8,15-3,2-7-2-8-2-17,4-34,18-47,24-14,6-78-6-98-8-2,0-1,5-3,7z" fill="currentColor"/>
</svg>