<?xml version="1.0" encoding="utf-8"?>
<svg version="1.1" xmlns="http://www.w3.org/2000/svg" xmlns:xlink="http://www.w3.org/1999/xlink"
   viewBox="0 0 512 512" xml:space="preserve">
<path d="M264,485c-24,1-47-4-66-17-6-3-9-10-15-11-6-2-13,1-20,0-26-2-51-24-66-44-55-74-20-191,47-245,11-9,22-16,34-23,13-7,24-10,24-11-2-4-4-8-7-12-9-17-40-39-20-55,16-13,21-7,30,10,1,0,11,20,12,19,35-51,60-71,121-51,7,3,20,6,25,13,5,9-21,22-26,24-37,19-74,14-114,20-6,1,3,25,6,26,5,2,10-1,15-1,8,0,18,6,25,6,5,0,9-5,13-7,22-8,48-5,69,4,148,66,92,351-88,355z" fill="currentColor"/>
</svg>