<?xml version="1.0" encoding="utf-8"?>
<svg version="1.1" xmlns="http://www.w3.org/2000/svg" xmlns:xlink="http://www.w3.org/1999/xlink"
   viewBox="0 0 512 512" xml:space="preserve">
<path d="M190,486c-26-27-47-65-67-98-6-9-11-25-19-32-2-2-32-8-30-3,9,24,19,33,2,58-2,4-8,13-13,15-4,2-10-20-25-20-8,0-28,4-34-4-2-3,24-23,26-30,8-16-16-32-3-50,26-35,61,3,47-28-6-12-11-24-15-36-5-13-30-86-22-96,11-17,45-20,60-33,3-2,2-7,9-9,2,1,16,0,17-3,1-3-3-17,4-17,5,1,10,3,13,5,7,5,169-67,177-62,28,19,51,55,73,81,2,3,30,40,30,40,8-4,8-17,19-20,10-2,17,5,26,8,12,4,24-20,26,1,1,8-2,15-3,23,1,5,18-2,19,5,2,20-24,26-38,22,0,0-26-5-22,2,13,25,36,50,44,77,3,10-7,29-10,39-2,5-4,23-8,27-19,17-72,21-88,39-3,4,8,5,9,9,3,5-3,16,2,20,5,4,20,1,22,6,5,14-27,18-32,24-5,6,27,17-21,24-45,6-2-44-22-52-25-10-126,55-153,68z" fill="currentColor"/>
</svg>