<?xml version="1.0" encoding="utf-8"?>
<svg version="1.1" xmlns="http://www.w3.org/2000/svg" xmlns:xlink="http://www.w3.org/1999/xlink"
   viewBox="0 0 512 512" xml:space="preserve">
<path d="M185,493c-58-43-191-232-136-306,4-7,32-33,43-22,7,8,9,27,12,37,1,4,1,16,4,13,18-24,29-39,56-53,1,0-13-5-17-17-5-16,8-24,9-37,0-10-12-17-8-30,14-47,64-2,67-2,3,0,4-6,6-8,6-5,24-2,28-8,10-17,16-37,42-35,28,2,16,23,25,34,4,4,11,4,15,7,19,14,13,25,9,42,0,1,2,1,3-1,7-1,14-2,22-2,24,1,46,7,63,25,79,80-7,263-81,318-4,3-33-9-38-10-43-15-84-34-122-61-13-10-26-28-40-35-2,1,1,3,1,5,4,12,8,24,11,36,6,18,40,102,26,110z" fill="currentColor"/>
</svg>