<?xml version="1.0" encoding="utf-8"?>
<svg version="1.1" xmlns="http://www.w3.org/2000/svg" xmlns:xlink="http://www.w3.org/1999/xlink"
   viewBox="0 0 512 512" xml:space="preserve">
<path d="M329,473c-57,2-109-39-125-93,1-2-6-35-8-35-48-3-84,15-113-40-8-15-15-35-11-52,6-32,34-55,63-67,3-1,31-7,32-9,1-2-18-19-20-21-29-35-35-89,15-110,49-20,79,15,93,59,2,5,17,52,18,51,39-27,95-89,142-41,28,28,0,70-19,96-2,2-23,27-22,28,33,27,64,54,74,97,18,74-50,134-119,137zM322,421c13,1,26-4,39-10,46-22,57-62,35-107-3-5-18-33-26-32-3,0,1,7,0,11-1,3-3,7-5,10-8,11-19,31-29,40-22,19-85,30-105,6-2-3,2,6,3,9,3,9,7,18,12,27,14,29,43,49,76,46z" fill="currentColor"/>
</svg>