<?xml version="1.0" encoding="utf-8"?>
<svg version="1.1" xmlns="http://www.w3.org/2000/svg" xmlns:xlink="http://www.w3.org/1999/xlink"
   viewBox="0 0 512 512" xml:space="preserve">
<path d="M391,510c-68-1-135-5-203-9-5,0-47,2-48-5-2-8,1-18-2-26-2-44-3-88-7-132,1-11-13-2-13-9,0-16,15-28,15-28-10-2-20-2-30-7-40-20,40-11,25-32-1-3,1-8-3-9-6-2-12,2-19-1-6-3-7-17-11-18-7-3-13,1-20-5-5-5-3-13-7-18-5-4-15-1-19-8-2-4-2-16-4-18-4-4-14-3-18-9-7-9,1-14,0-21-2-6-10-8-12-15-2-8,5-13,4-19-5-45,9-62,53-78,10-3,11-11,24-9,4,1,37,6,38,6,1,1,8,10,9,10,5,0,6-8,13-3,4,4,32-27,38-31,13-8,55-10,69-6,48,15,43,80,50,87,2,2,30-35,38-39,39-18,26,34,42,39,21,8,31-37,57-17,12,9,43,108,41,124-2,7-14,25-13,31,1,6,10,8,13,14,11,15-4,27,11,33,9,3-8,23-11,25-1,1-13,8-13,9,3,2,24,19,14,26-5,2-25-7-25-4-6,47-2,96-8,143-2,15-56,29-67,29z" fill="currentColor"/>
</svg>