<?xml version="1.0" encoding="utf-8"?>
<svg version="1.1" xmlns="http://www.w3.org/2000/svg" xmlns:xlink="http://www.w3.org/1999/xlink"
   viewBox="0 0 512 512" xml:space="preserve">
<path d="M265,503c-71-1-206-3-247-71-8-12-12-24-8-38,14-43,69-45,102-60,4-2,1-8,2-11,8-31,17-62,31-90,18-36,68-46,92-77,11-14,3-102,36-126,17-12,113-33,130-20,23,17-51,51-58,63-3,6,37,83,36,105,1,27-27,50-32,77-3,12,8,24,14,34,7,12,14,33,24,42,4,4,18,4,23,6,31,8,70,20,87,49,8,14,4,27-1,41-27,66-169,76-231,76z" fill="currentColor"/>
</svg>