<?xml version="1.0" encoding="utf-8"?>
<svg version="1.1" xmlns="http://www.w3.org/2000/svg" xmlns:xlink="http://www.w3.org/1999/xlink"
   viewBox="0 0 512 512" xml:space="preserve">
<path d="M304,473c-92-7-263-25-286-138-5-23,2-46,17-63,53-56,134,16,171-29,4-5,7-15,9-22,7-25-32-18-32-45,0-27,76-65,76-66-1-3-4-10-8-11-22-5-19,50-47,27-25-20,6-61,27-69,40-16,61,28,63,28,2,0,1-4,2-6,2-7,5-14,10-19,10-12,28-19,43-19,24,0,45,15,53,37,3,7-4,19,3,22,5,2,6-8,11-11,11-7,17,5,12-12-2-8-4-18-4-26,0-4,26,0,32,1,8,1,6,15,11,14,5,0,19-5,21,4,1,5-3,12,2,15,5,2,12,2,12,9,0,7-29,11-34,13-5,3,7,12,5,18-3,16-22,29-25,45,1,1,16,13,17,15,5,7,7,17,6,26-1,15,1,57-7,66-20,30-30-4-48,54-1,4-6,9-4,13,3,5,45,2,45,43,0,37-37,49-66,36-3-1-3,6-5,8-7,12-2,6-13,17-19,19-44,25-69,25z" fill="currentColor"/>
</svg>