<?xml version="1.0" encoding="utf-8"?>
<svg version="1.1" xmlns="http://www.w3.org/2000/svg" xmlns:xlink="http://www.w3.org/1999/xlink"
   viewBox="0 0 512 512" xml:space="preserve">
<path d="M223,493c-45,2-36-30-53-54-10-13-33-18-44-35-14-24-5-57-16-78-7-12-13,44-40,50-28,6-28-26-41-39-3-4-11-2-15-6-14-17-16-61-2-78,3-3,13-5,15-7,10-15,7-33,24-46,17-12,34,4,42,19,6,11,1,43,11,35,11-8,16-18,29-24,1,0-12-11-12-11-7-8-10-22-17-28-13-11-36,6-45-24-24-78,44-61,51-65,10-8,34-43,47-56,4-4-5-12,1-15,6-4,82,3,97,8,17,7,25,23,40,30,15,8,28-5,43,16,19,26,0,38,0,62,1,55,24,32-22,82-3,4,8,4,12,6,7,3,32,21,40,15,4-2-16-102,42-85,49,14,70,117,43,155-23,33-48-3-65-18-2-2-34,5-40,4-6-1-12-8-17-5-2,2,3,4,4,6,19,26,33,14,61,24,48,18,30,50,30,86,0,11,8,21,6,35-5,34-71,11-87,0-8-5-16-14-18-24,1-3,4-10,1-10-2,0-55,17-56,19,0,1,7,11,8,14,4,31-36,40-57,42z" fill="currentColor"/>
</svg>