<?xml version="1.0" encoding="utf-8"?>
<svg version="1.1" xmlns="http://www.w3.org/2000/svg" xmlns:xlink="http://www.w3.org/1999/xlink"
   viewBox="0 0 512 512" xml:space="preserve">
<path d="M260,462c-54,2-111-27-137-76-6-11-9-23-14-34-6-9-12-14-14-26-6-26,16-63,24-88,1-4-10,5-22,5-14,0-24-13-26-26-4-17-16-40-12-59,2-10,21-14,22-19,0-2-10-10-11-14-2-9,13-60,20-66,29-26,80,37,102,46,3,1,21,3,24,2,6,1,11-6,16-8,5-1,9,2,13,1,21-12,40-75,76-57,11,6,27,38,31,49,0,1-2,10-2,10,6,5,13,4,17,13,5,12,6,35,6,47,0,7-2,17-6,23-2,3-14,2-12,5,15,23,53,52,60,78,4,16-2,24-5,38-4,18-2,36-9,55-22,59-78,99-141,101z" fill="currentColor"/>
</svg>