<?xml version="1.0" encoding="utf-8"?>
<svg version="1.1" xmlns="http://www.w3.org/2000/svg" xmlns:xlink="http://www.w3.org/1999/xlink"
   viewBox="0 0 512 512" xml:space="preserve">
<path d="M263,492c-116-1-194-135-135-235,23-40,55-56,94-74,8-3-4-18-2-27,3-12,17-16,21-24,0-1-2-18-3-18-2-2-13,2-16,2-21-2-62-14-80-24-10-5-59-47-50-57,3-3,14,11,12,7-1-3-8-11-1-13,5-1,44,46,66,51,12,3,59,19,69,16,7-2,4-8,22-8,28,0,13,5,49,1,39-4,70-35,94-64,1-1,6-1,7,1,3,5-4,8-4,12,0,4,7-12,11-9,15,12-29,40-33,46-17,22-64,36-92,40-4,1-9-5-11-2-12,20,10,27,14,44,0,1-2,23-1,23,16,9,36,11,53,21,3,2,25,14,21,20-4,6-39-10-46-10-45-4-88,18-111,56-36,61-7,141,59,166,4,1,20,8,23,6,1,0,1-26,0-28-6-8-28-12-24-26,3-12,23-6,31-14,5-5,4-38,21-30,8,4,10,19,18,24,8,6,24-5,33,3,12,10-23,23-7,57,2,3,33-30,38-26,9,5-19,37-24,42-31,31-71,52-116,51z" fill="currentColor"/>
</svg>