<?xml version="1.0" encoding="utf-8"?>
<svg version="1.1" xmlns="http://www.w3.org/2000/svg" xmlns:xlink="http://www.w3.org/1999/xlink"
   viewBox="0 0 512 512" xml:space="preserve">
<path d="M137,431c-58-3-107-49-107-108,0-11,12-42,11-47-1-9-16-22-20-31-16-36-14-82,4-117,27-53,89-53,141-50,16,1,36,5,52,0,16-5,23-22,16-38-19-45-35,3-48-11-7-7,7-23,15-20,16,6,38,14,51,23,22,16,0,58-15,69-26,17-53,8-81,11-60,6-72,59-57,109,1,3,20-4,23-4,19-3,36,0,54,5,4,2,8,5,13,6,18,1,106-32,124-41,21-10,46-11,69-16,24-5,48-15,73-20,18-3,44-5,50,18,5,20-27,40-39,50-8,7-13,14-21,21-23,18-50,30-72,49-60,51-157,136-236,142z" fill="currentColor"/>
</svg>