<?xml version="1.0" encoding="utf-8"?>
<svg version="1.1" xmlns="http://www.w3.org/2000/svg" xmlns:xlink="http://www.w3.org/1999/xlink"
   viewBox="0 0 512 512" xml:space="preserve">
<path d="M133,468c-38-26-74-62-110-93-3-3-19-13-19-18,2-22,5-47,9-68,2-9,28,1,34-4,1-2-2-28-3-30,1-2-20-3-22-10-6-19-9-46-7-66,1-10,26-3,32-6,5-4,6-10,10-15,7-12,15-33,27-40,40-22,154-17,200-12,10,1,37,54,47,61,2,2,1-8,4-10,3-2,12-4,15-1,7,4-5,19-2,22,6,9,135,11,150,26,18,16,3,85-7,103-14,23-46-13-52,10,0,1,47,14,52,16,0,0,16,94,14,101-2,6-62,6-69,7-68,6-136,12-203,18-33,3-67,9-100,9z" fill="currentColor"/>
</svg>