<?xml version="1.0" encoding="utf-8"?>
<svg version="1.1" xmlns="http://www.w3.org/2000/svg" xmlns:xlink="http://www.w3.org/1999/xlink"
   viewBox="0 0 512 512" xml:space="preserve">
<path d="M252,494c-41-7-140,14-171-8-29-21-27-62-48-88-11-14-29-11-24-39,4-24,17-50,26-73,7-20,11-56,30-70,19-14,45,2,64-6,6-3-2-22-2-25,0-2,2-14,1-16-3-4-22-9,0-9,4,0,10,2,10-2,1-7-18-6-22-10-8-6,20-6,10-12-5-3-19-9-13-11,5-1,21,2,16-1-19-13-33-20,2-11,1,0-23-9-9-23,8-7,16,5,22,5,3,0,6-4,9-5,11-3,24,5,36,2,8-1,12-10,22-8,10,2,28,21,31,22,10,1,31-10,41-13,24-6,178-50,188-40,24,24-80,43-93,47-25,7-119,24-125,54,1,3,3,6,3,9,1,15-3,32-11,43-4,6,30,4,36,4,31,0,61,0,92,0,19,0,50-6,66,6,17,12,52,117,56,140,5,31-18,30-28,51-11,25-19,62-43,79-24,16-138,8-172,8z" fill="currentColor"/>
</svg>